<?xml version="1.0" encoding="utf-8"?>
<!-- Generator: Adobe Illustrator 19.2.1, SVG Export Plug-In . SVG Version: 6.00 Build 0)  -->
<svg version="1.1" id="layer" xmlns="http://www.w3.org/2000/svg" xmlns:xlink="http://www.w3.org/1999/xlink" x="0px" y="0px"
	 viewBox="0 0 652 652" style="enable-background:new 0 0 652 652;" xml:space="preserve">
<style type="text/css">
	.st0{fill:#1891CB;}
	.st1{fill:#F7CE17;}
</style>
<path d="M168.1,310.9c-1.8-6.4-4.4-13-13-13c-5.8-0.3-10.7,4.1-11,9.9c0,0.3,0,0.6,0,0.9c0,7.3,4.6,10.6,12.6,14.6
	c7.9,4,17.1,8.6,17.1,19.6c0,10.4-8.8,18.5-21.8,18.5c-3.3-0.1-6.6-0.6-9.7-1.5c-1.7-0.6-3.3-1.2-4.9-2c-1.2-5-2.1-10.1-2.6-15.2
	l2.9-0.7c1.5,6,6,15.9,16.1,15.9c7.5,0,11.9-4.6,11.9-11.9c0-7.3-5.5-10.8-12.8-14.8c-6.4-3.3-16.3-8.4-16.3-19.4
	c0-9.5,7.5-17.7,20.3-17.7c4.2,0.1,8.4,0.9,12.4,2.2c0.4,3.5,0.9,7.5,1.8,13.7L168.1,310.9z"/>
<path d="M234.3,360.1v-2.6c5.7-0.7,6.8-0.9,6.8-7.9v-16.6c0-7.1-2.4-11.5-8.6-11.5c-4.1,0.4-8,2.2-11,5.1c0.2,1.4,0.3,2.8,0.2,4.2
	v19.2c0,6.2,0.9,6.8,6.4,7.5v2.6h-21.2v-2.6c6.2-0.7,7.1-1.1,7.1-7.5v-17c0-7.3-2.6-11.3-8.6-11.3c-4,0-7.7,2.6-10.8,5.1v23.2
	c0,6.4,0.9,7.1,5.5,7.5v2.6h-20.7v-2.6c6.4-0.7,7.5-1.1,7.5-7.5v-20.5c0-6.4-0.2-6.8-6-7.7v-2.2c4.7-0.8,9.3-2.1,13.7-4v7.9
	c2-1.3,4.2-3.1,7.3-5.1c2.4-1.7,5.2-2.6,8.2-2.6c5,0.1,9.5,3.4,11,8.2c2.9-2.2,5.7-4,8.2-5.5c2.2-1.6,4.8-2.5,7.5-2.6
	c7.7,0,12.6,5.5,12.6,15v19c0,6.6,0.9,7.1,6.4,7.5v2.6h-21.4L234.3,360.1z"/>
<path d="M260.8,360.1v-2.6c6.2-0.7,6.8-1.1,6.8-7.9v-20.3c0-6.2-0.2-6.4-6.2-7.5v-2.4c4.8-0.7,9.4-2,13.9-3.8v34
	c0,6.6,0.7,7.3,7.1,7.9v2.6H260.8z M265.9,302.3c0-2.8,2.3-5,5.1-5.1c2.7,0,4.8,2.1,4.9,4.8c0,0.1,0,0.2,0,0.3c0,2.7-2.2,5-5,5.1
	C268.1,307.1,266,305,265.9,302.3z"/>
<path d="M305.6,359.9c-1.3,0.7-2.7,1.2-4.2,1.3c-6.2,0-9.7-4-9.7-11.7v-28.7h-6.8l-0.4-0.9l2.6-2.9h4.6v-7.3l6.4-6.4l1.3,0.2v13.5
	h11.3c0.9,1.1,0.6,2.8-0.5,3.6c0,0-0.1,0.1-0.1,0.1h-10.5v25.4c0,7.9,3.3,9.5,5.7,9.5c2.2-0.1,4.3-0.7,6.2-1.8l0.9,2.6L305.6,359.9z
	"/>
<path d="M343.3,360.1v-2.6c5.7-0.7,6.4-1.1,6.4-7.5v-16.3c0-8.2-3.1-12.1-9.7-12.1c-4,0.1-7.7,1.9-10.2,5.1v23.4
	c0,6.4,0.4,7.1,6.4,7.5v2.6h-21v-2.6c6-0.4,6.8-1.1,6.8-7.5v-47c0-6.2-0.2-6.6-6.6-7.3v-2.2c4.9-0.8,9.8-2,14.6-3.5V323
	c3.5-3.5,8.8-7.3,14.1-7.3c7.9,0,13.7,5.1,13.7,16.8v17.2c0,6.4,0.7,7.1,6.4,7.5v2.6h-21L343.3,360.1z"/>
<path d="M394.4,328.5c-1.8-5.7-5.3-9.7-10.2-9.7c-3.5,0-6.4,2.8-6.4,6.3c0,0.2,0,0.3,0,0.5c0,4.4,4,6.6,8.4,8.6
	c7.5,3.1,12.4,6.6,12.4,13.5c0,9-8.4,13.7-16.3,13.7c-4,0.1-7.9-1-11.3-3.3c-1-3.8-1.5-7.7-1.5-11.7l2.6-0.4
	c1.8,6.4,6.2,12.1,12.1,12.1c3.8,0.1,7-3,7.1-6.8c0,0,0,0,0,0c0-4.4-2.9-6.6-7.7-9c-6-2.9-12.4-6-12.4-13.7c0-6.8,6-12.8,15-12.8
	c3,0,6,0.6,8.8,1.8c1,3.5,1.7,7,2.2,10.6L394.4,328.5z"/>
<path d="M449,337.8c0,15.9-11.7,23.4-21.4,23.4c-11.8,0.1-21.5-9.4-21.6-21.2c0-0.2,0-0.4,0-0.7c0-16.3,12.6-23.6,21.6-23.6
	c11.8,0,21.4,9.6,21.4,21.5C449,337.4,449,337.6,449,337.8z M415.3,336.3c0,12.4,5.5,21.6,13.5,21.6c6.2,0,11.3-4.6,11.3-18.1
	c0-11.5-4.6-21-13.2-21C420.6,319,415.3,325.2,415.3,336.3z"/>
<path d="M482.7,360.1v-2.6c5.7-0.7,6.4-1.3,6.4-8.2v-16.6c0-6.8-2.4-11.3-9-11.3c-4.1,0.4-7.9,2.2-10.8,5.1v23.2
	c0,6.6,0.7,7.1,6.4,7.7v2.6h-21.4v-2.6c6.6-0.7,7.3-1.1,7.3-7.7v-20.5c0-6.4-0.7-6.6-6-7.5v-2.2c4.7-0.8,9.3-2.1,13.7-4v7.9
	c2-1.5,4.2-2.9,6.6-4.6c2.4-1.7,5.2-2.7,8.2-2.9c7.7,0,12.8,5.5,12.8,15v19c0,6.6,0.4,7.1,6.2,7.7v2.6h-20.3V360.1z"/>
<path d="M508.6,360.1v-2.6c6.2-0.7,6.8-1.1,6.8-7.9v-20.3c0-6.2-0.2-6.4-6.2-7.5v-2.4c4.8-0.7,9.4-2,13.9-3.8v34
	c0,6.6,0.7,7.3,7.1,7.9v2.6H508.6z M513.9,302.3c0-2.8,2.3-5,5.1-5.1c2.7,0,4.8,2.1,4.9,4.8c0,0.1,0,0.2,0,0.3c0,2.8-2.3,5-5.1,5.1
	C516.1,307.1,514,305,513.9,302.3z"/>
<path d="M566.5,361.2c-1.7-0.1-3.3-0.7-4.6-1.8c-1.1-1.3-1.9-2.8-2.4-4.4c-4,2.6-8.6,6.4-11.7,6.4c-6.6,0-11.9-5.3-11.9-11.9
	c0-0.1,0-0.1,0-0.2c0-4.9,2.6-7.9,7.9-9.7c6-2,13-4.6,15.2-6.4v-1.8c0-7.1-3.3-11.3-8.4-11.3c-1.7,0-3.3,0.7-4.4,2
	c-1.5,1.8-2.5,4-2.9,6.4c-0.3,1.3-1.5,2.3-2.9,2.2c-2.3-0.2-4.1-1.9-4.4-4.2c0-1.5,1.3-2.6,3.1-4c4.5-3.1,9.5-5.5,14.8-6.8
	c2.9,0,5.8,0.9,8.2,2.6c3.5,2.9,4.4,6.8,4.4,12.1v18.3c0,4.4,1.8,6,3.5,6c1.3,0,2.5-0.4,3.5-1.1l0.9,2.6L566.5,361.2z M559.5,336.5
	c-2,1.1-6.8,3.1-8.8,4.2c-3.8,1.8-6,3.8-6,7.3c-0.2,4,2.9,7.3,6.9,7.5c0.1,0,0.1,0,0.2,0c3-0.3,5.7-1.5,7.9-3.5v-15.4L559.5,336.5z"
	/>
<path d="M605.7,360.1v-2.6c5.7-0.7,6.4-1.3,6.4-8.2v-16.6c0-6.8-2.4-11.3-9-11.3c-4.1,0.4-7.9,2.2-10.8,5.1v23.2
	c0,6.6,0.7,7.1,6.4,7.7v2.6h-21.4v-2.6c6.6-0.7,7.3-1.1,7.3-7.7v-20.5c0-6.4-0.7-6.6-6-7.5v-2.2c4.7-0.8,9.3-2.1,13.7-4v7.9
	c2-1.5,4.2-2.9,6.6-4.6c2.4-1.7,5.2-2.7,8.2-2.9c7.7,0,12.8,5.5,12.8,15v19c0,6.6,0.4,7.1,6.2,7.7v2.6h-20.3L605.7,360.1z"/>
<circle class="st0" cx="67" cy="325" r="41"/>
<path class="st1" d="M91.8,333.2c-1.4-2.8-4.2-4.5-7.3-4.6l0,0l17.7-3.8L84.5,321l0,0c2.4-2.1,5.6-3.3,8.8-3.3c4,0,7.3-4.9,5.1-8.4
	c0,0-0.7,5.7-7.9,3.8c-2.9-1-6.2-0.2-8.4,2l0,0l10-15.2l-15.2,9.9l0,0c0.3-3.2,1.7-6.3,4-8.6c2.6-2.9,1.8-8.6-2.4-9.7
	c0,0,3.5,4.4-2.9,8.4c-2.8,1.4-4.5,4.2-4.6,7.3l0,0l-3.8-17.7l-3.8,17.7l0,0c-2.1-2.4-3.3-5.6-3.3-8.8c0-4-4.9-7.3-8.4-5.1
	c0,0,5.7,0.7,3.8,7.9c-1,2.9-0.2,6.2,2,8.4l0,0l-15.3-9.9l0,0l8.2,12.4l1.8,2.9l0,0c-3.2-0.3-6.2-1.7-8.5-4
	c-2.9-2.6-8.6-1.8-9.7,2.4c0,0,4.4-3.5,8.4,2.9c1.4,2.8,4.2,4.5,7.3,4.6l0,0l-17.7,3.8l17.7,3.8l0,0c-2.5,2-5.6,3.2-8.8,3.3
	c-4,0-7.3,4.9-5.1,8.4c0,0,0.7-5.7,7.9-3.8c2.9,1,6.2,0.2,8.4-2l0,0L42,349.5l15.2-9.9c-0.3,3.2-1.7,6.3-4,8.6
	c-2.6,2.9-1.8,8.6,2.4,9.7c0,0-3.5-4.4,2.9-8.4c2.8-1.4,4.5-4.2,4.6-7.3l0,0l3.8,17.7l3.8-17.7l0,0c2.1,2.4,3.3,5.6,3.3,8.8
	c0,4,4.9,7.3,8.4,5.1c0,0-5.7-0.7-3.8-7.9c1-2.9,0.2-6.2-2-8.4l0,0l15.2,9.9l-5.3-7.9l-4.6-7.1l0,0c3.2,0.3,6.3,1.7,8.6,4
	c2.9,2.6,8.6,1.8,9.7-2.4C99.9,336.3,95.5,339.8,91.8,333.2z"/>
</svg>
