<?xml version="1.0" encoding="utf-8"?>
<!-- Generator: Adobe Illustrator 19.1.0, SVG Export Plug-In . SVG Version: 6.00 Build 0)  -->
<svg version="1.1" xmlns="http://www.w3.org/2000/svg" xmlns:xlink="http://www.w3.org/1999/xlink" x="0px" y="0px"
	 viewBox="0 0 562 373.3" style="enable-background:new 0 0 562 373.3;" xml:space="preserve">
<style type="text/css">
	.st0{fill:#FFFFFF;}
</style>
<g id="mark">
	<path class="st0" d="M142.5,184.5c0-34.1,16.6-63.6,66.1-63.6C208.6,155.1,186.1,184.5,142.5,184.5"/>
	<path class="st0" d="M221.7,274c9.3,0,16.4-1.3,23.7-4c0-27-16.1-46.2-44.5-60.1c-21.7-10.9-48.5-16.6-72.9-16.6
		c10.7-32.2,2.9-72-7.5-93.9c-11.5,22.9-18.7,62.3-7.6,94.3c-21.7,1.6-38.9,11-46.2,23.5c-0.5,0.9-1.7,3-1,3.3
		c0.5,0.3,1.4-0.6,1.9-1c7.8-7.3,18.2-10.8,28.2-10.8c23,0,39.3,19.1,50.8,30.6C171.2,263.9,195.4,274,221.7,274"/>
</g>
<g id="outlined_logotype">
	<g>
		<path class="st0" d="M316.8,147.3l-12,6.1c-0.6,0.3-1.2,0.8-1.8,0.8c-0.5,0-0.9-0.3-1.2-1c-2.7-6.4-6.6-8.8-10.6-8.8h-9.9
			c-5.8,0-10.8,4.9-10.8,10.8v44.4c0,5.8,5,10.8,10.8,10.8h7.3c6,0,10.6-4.8,10.6-10.8v-7c0-1-0.5-1.5-1.5-1.5h-14.1
			c-1,0-1.5-0.5-1.5-1.5v-12.7c0-1,0.5-1.5,1.5-1.5H315c1,0,1.5,0.5,1.5,1.5v22.8c0,15.6-10.9,26.5-27.9,26.5h-7.3
			c-17.1,0-27.9-10.9-27.9-26.5v-44.4c0-15.6,10.8-26.5,27.9-26.5h9.9c12.4,0,19.2,5.1,23.7,12.1c1.3,2.2,2.8,4.6,2.8,5.5
			C317.7,146.7,317.4,147,316.8,147.3z"/>
		<path class="st0" d="M364.5,224.6h-33.7c-1,0-1.5-0.5-1.5-1.5v-91.5c0-1.1,0.5-1.5,1.5-1.5h33.7c17.1,0,27.9,10.9,27.9,27.9v1.5
			c0,5.5-3.6,12-8,16.2c-0.5,0.3-0.6,0.8-0.6,1c0,0.3,0.1,0.8,0.6,1c4.4,4.2,8,11.4,8,16.9v2.2C392.4,213.9,381.6,224.6,364.5,224.6
			z M375.3,156.6c0-5.8-5-10.8-10.8-10.8H348c-1,0-1.5,0.4-1.5,1.5v19.9c0,1.1,0.5,1.5,1.5,1.5h16.5c5.8,0,10.8-4.9,10.8-10.8V156.6
			z M375.3,195.2c0-6-4.8-10.6-10.8-10.6H348c-1,0-1.5,0.5-1.5,1.5v21.3c0,1.1,0.5,1.5,1.5,1.5h16.5c5.8,0,10.8-4.6,10.8-10.8V195.2
			z"/>
		<path class="st0" d="M422.4,224.6h-14.2c-1,0-1.5-0.5-1.5-1.5v-91.5c0-1.1,0.5-1.5,1.5-1.5h14.2c1,0,1.5,0.4,1.5,1.5v91.5
			C423.9,224.1,423.5,224.6,422.4,224.6z"/>
		<path class="st0" d="M497.3,145.8h-35.7c-1,0-1.5,0.4-1.5,1.5v19.9c0,1.1,0.5,1.5,1.5,1.5h29.2c1,0,1.5,0.5,1.5,1.5V183
			c0,1-0.5,1.5-1.5,1.5h-29.2c-1,0-1.5,0.5-1.5,1.5v37c0,1-0.5,1.5-1.5,1.5h-14.2c-1,0-1.5-0.5-1.5-1.5v-91.5c0-1.1,0.5-1.5,1.5-1.5
			h52.9c1,0,1.5,0.4,1.5,1.5v12.7C498.8,145.4,498.3,145.8,497.3,145.8z"/>
	</g>
</g>
</svg>
