<?xml version="1.0" encoding="UTF-8" standalone="no"?>
<svg
   xmlns:dc="http://purl.org/dc/elements/1.1/"
   xmlns:cc="http://creativecommons.org/ns#"
   xmlns:rdf="http://www.w3.org/1999/02/22-rdf-syntax-ns#"
   xmlns:svg="http://www.w3.org/2000/svg"
   xmlns="http://www.w3.org/2000/svg"
   xmlns:xlink="http://www.w3.org/1999/xlink"
   id="svg2"
   version="1.1"
   viewBox="0 0 640 340.8"
   height="426"
   width="800">
  <title
     id="title4371">ITIS Logo</title>
  <defs
     id="defs121">
    <linearGradient
       gradientTransform="translate(-235.73392,-19.360959)"
       spreadMethod="pad"
       gradientUnits="userSpaceOnUse"
       y2="313.00385"
       x2="583.54596"
       y1="498.27548"
       x1="583.30103"
       id="linearGradient4178"
       xlink:href="#linearGradient4172" />
    <linearGradient
       id="linearGradient4172">
      <stop
         id="stop4174"
         offset="0"
         style="stop-color:#448f54;stop-opacity:1;" />
      <stop
         id="stop4176"
         offset="1"
         style="stop-color:#617eca;stop-opacity:1" />
    </linearGradient>
  </defs>
  <g
     transform="matrix(1.6627132,0,0,1.6627132,-13.967568,-8.4501713)"
     id="ITIS">
    <path
       style="opacity:1;fill:#000000"
       id="path20"
       d="m 340.04,40.79 c 6.5,-5.39 16.2,-6.73 23.78,-2.83 7.63,3.37 12.32,11.85 12.02,20.06 0,5.11 -0.07,10.23 0.04,15.34 -4.83,0.05 -9.66,0 -14.49,0.04 0,-7.32 -0.06,-14.65 0.05,-21.97 -4.89,-0.02 -9.52151,0.01233 -14.67,0.09 0.18,15.97 0.17,31.95 0.01,47.92 7.55,0.97 16.14,-1.91 22.81,2.78 3.87,2.51 6.34,7.08 6.23,11.71 0.02,14.03 -0.01,28.06 0.01,42.09 0.22,6.02 -2.29,12.07 -6.59,16.27 -6.23,5.8 -15.98,7.67 -23.78,4.07 -7.76,-3 -12.89,-11.12 -13,-19.33 -0.07,-5.51 0.02,-11.02 -0.04,-16.53 4.82,0.01 9.65,0.02 14.48,0 -0.08,7.3 0.08,14.6 -0.1,21.9 4.87,0.19 9.75,0.08 14.62,0.08 -0.06,-16.03 -0.07,-32.06 0.01,-48.09 -5.13,-0.17 -10.27,0.06 -15.4,-0.1 -7.29,-0.19 -13.6,-6.97 -13.58,-14.21 -0.04,-14.03 0.01,-28.07 -0.02,-42.1 -0.2,-6.48 2.73,-12.95 7.61,-17.19 z" />
    <path
       style="opacity:1;fill:#000000"
       id="path22"
       d="m 225.2,36.77 c 8.02676,0.07255 9.28418,0.04745 14.37398,0.06418 0.0258,47.777894 -0.0591,98.67936 0.036,140.17506 -4.55151,0.0515 -9.63,0.0107 -14.44,0.0407 -0.09,-46.75 -0.13,-93.520003 0.03,-140.280003 z" />
    <path
       style="opacity:1;fill:#000000"
       id="path24"
       d="m 249.12,36.77 c 14.48,0.09 28.96,0.11 43.45,-0.01 0.18,4.88 0.06,9.77 0.08,14.65 -4.81,-0.02 -9.62,-0.06 -14.42,0.03 0.12,41.88 -0.01,83.77 0.06,125.65 -5.04233,-0.0184 -9.2861,-0.0385 -14.63,-0.008 0.05,-41.84 -0.06,-83.85233 0.06,-125.68233 -4.94,-0.03 -9.87,0.01 -14.8,-0.02 0.02,-4.87 0.16,-9.74 0.2,-14.61 z" />
    <path
       style="opacity:1;fill:#000000"
       id="path26"
       d="m 302.8,36.82 c 4.86,0.01 9.73,0.01 14.6,-0.01 0.01,46.68 -0.06,93.36 0.04,140.04 -4.88,0.0415 -9.3061,-0.0147 -14.66,0.02 0.08,-46.68 0.05,-93.37 0.02,-140.05 z" />
  </g>
  <g
     style="opacity:1"
     transform="matrix(0.86097402,0,0,0.86097402,-114.81085,-150.68645)"
     id="g4285">
    <circle
       style="opacity:1;fill:url(#linearGradient4178);fill-opacity:1;fill-rule:evenodd;stroke:none;stroke-width:40;stroke-linecap:butt;stroke-linejoin:miter;stroke-miterlimit:10;stroke-dasharray:none;stroke-dashoffset:0;stroke-opacity:1"
       id="path4170"
       cx="341.12469"
       cy="372.84247"
       r="174.10713" />
    <g
       id="Symbols"
       transform="translate(139.26611,176.13658)">
      <path
         d="m 213.92,31.04 c 0.5,-0.11 1.43117,-0.09467 1.93117,-0.204674 0.54,3.51 0.41883,6.834674 -0.74117,10.204674 2.71481,-0.699523 5.20317,-1.851213 8.82203,-2.231251 0.37106,0.488763 0.5769,0.892433 0.62797,1.821251 -6.28,1 -12.81,4.08 -16.12,9.73 -3.95,7.06 -0.44,18.57 8.23,19.72 -0.24,-4.55 1.09,-8.95 3.28,-12.89 -1.81416,-0.512337 -5.56092,-1.365326 -7.20092,-1.829483 l 0.16391,-1.541686 c 2.55752,0.44 6.83974,2.391169 10.69701,0.861169 3.5,-2.23 3.38,-6.66 3.55,-10.31 l 1.86385,0.07784 c 0.0475,2.183305 -0.3513,6.093284 -1.13385,8.532162 2.15986,-0.281948 5.30744,-1.071221 8.68359,-0.950011 l 0.0564,1.740011 c -4.84,0.02 -9.86,1.18 -13.62,4.37 -3.53,3.27 -4.27,8.37 -3.93,12.95 6.47,1.72 12.53,4.62 18.74,7.08 1.97,0.44 2.18,2.43 2.44,4.09 -4.81,2.19 -10.35,1.58 -15.09,4.02 -2.73,7.43 -6.23,15.159998 -4.65,23.249998 1.98,2.98 5.89,3.67 8.39,6.12 -2.09,5.85 -7.53,9.43 -10.72,14.57 -2.03,3.1 -4.14,7.11 -8.39,7.15 1.93,-6.71 9.13,-10.49 10.49,-17.45 -2.28,-1.62 -5.57,-2.47 -8.04,-0.81 -2.34,1.55 -2.26,4.65 -3.26,7 -2.67,8.94 -7.96,16.72 -12.26,24.89 -0.49,0.21 -1.47,0.62 -1.96,0.83 -0.19,-3.52 1.72,-6.56 2.78,-9.79 -5.43,-2.33 -10.78,-4.84 -16.28,-7.01 -0.05,4.46 3.89,7.79 3.56,12.19 -0.49,-0.24 -1.48,-0.72 -1.97,-0.95 -2.3,-3.78 -4.29,-7.72 -6.32,-11.64 -1.18,-3.49 -5.63,-3.14 -7.95,-5.53 -0.39,-1.81 1.02,-2.44 2.41,-2.97 -0.06,-2.63 0.55,-5.63 -1.34,-7.8 -3.58,-4.73 -8.78,-8.18 -11.47,-13.6 -0.85,-2.66 -0.84,-5.489998 -0.12,-8.169998 3.25,-5 8.8,-8.37 14.8,-8.54 11.42,-0.07 22.85,0.02 34.27,-0.02 2.18,-0.04 4.85,-0.71 5.86,-2.86 1.79,-3.71 4.3,-7.44 3.89,-11.76 -3.32,-1.13 -7.17,-1.8 -9.27,-4.94 -5.13,-5.88 -5.47,-15.22 -0.3,-21.19 -4.48299,-0.524674 -9.18715,-1.495326 -12.30533,-3.72 -0.07,-0.4 0.0253,-0.77818 0.083,-1.58 5.07,1.96 12.02234,5.46 16.51234,0.65 3.22,-3 2.5592,-8.086001 2.31,-11.56 M 184.42,117.35 c -1.06,2 -2.14,3.98 -3.41,5.85 -1.16,1.85 -3.19,3.36 -2.95,5.78 6.67,3.74 13.34,7.55 20.37,10.59 1.58,-2.28 2.63,-4.89 3.41,-7.54 0.7,-2.65 -0.73,-5.11 -1.48,-7.55 -0.85,-2.24 -0.39,-4.68 -0.77,-7 -5.04,-0.45 -10.12,-0.15 -15.17,-0.13 z"
         id="path7-9"
         style="opacity:1;fill:#ffffff" />
      <path
         d="m 288.22,122.01 c 4.81,-4.36 11.52,-5.3 17.79,-5.1 7.25,0.11 15.06,-0.81 21.59,3.04 2.09,1.73 4.68,3.92 4.45,6.93 -0.27,2.75 -2.44467,5.06831 -4.46,6.32 -4.28,1.94 -7.9387,2.52402 -13.63,2.83 -7.33766,-0.047 -16.92261,0.3687 -21.69,-2.33 -2.74,-1.34 -5.4556,-3.3072 -6.0168,-6.4332 -0.0792,-2.8684 0.7972,-3.9096 1.9668,-5.2568 z"
         id="path9-6"
         style="opacity:1;fill:#ffffff" />
      <path
         d="m 75.84,133.84 c 6.38,-3.62 14.27,-4.52 21.26,-2.24 2.73,0.9 5.16,2.54 7.89,3.44 2.81,0.08 5.69,-0.33 8.39,0.68 0.59296,0.23761 2.36757,0.59503 2.36757,0.59503 0,0 3.8738,-1.34554 6.13243,-1.38503 8.53,-0.81 16.71,4.31 21.24,11.28 2.53,4.55 2.18,9.87 1.94,14.89 -1.64,9.98 -11.23,17.19 -21.1,17.46 -1.87226,-0.0139 -5.21716,-0.64668 -5.21716,-0.64668 0,0 -2.38545,0.86978 -3.17583,1.19201 -3.8752,1.2764 -5.71701,0.21467 -8.75701,0.21467 -3.87,2.1 -7.56,4.78 -11.99,5.58 -8.76,2.22 -18.14,-0.98 -24.71,-6.94 -6.23,-4.48 -8.44,-12.55 -8.7,-19.89 -0.18,-4.77 1.48,-9.28 3.35,-13.58 3.194674,-4.96663 6.32,-8.39 11.08,-10.65 m 3.9,7.82 c -3.54,1.36 -6.411686,4.1 -7.41,8.13 -0.47,4.4 -0.71,9.72 2.9,12.96 5.07,5.44 15.15,4.95 19.5,-1.13 4.17,-5.1 3.49,-13.44 -1.5,-17.76 -3.83,-2.93 -8.92,-3.23 -13.49,-2.2 m 42.94,12.07 c -0.92065,1.82935 -1.28,5.09 0.38,7.11 3.66736,3.57604 8.43282,1.29863 9.48,-1.53 0.40831,-2.64065 0.11,-4.72 -1.7,-6.31 -2.54,-1.7 -5.70234,-1.54831 -8.16,0.73 m -13.48,4.45 c -2.97,2.28 -2.83,7.28 0.32,9.34 3.1,1.7 7.62,-0.76 7.39,-4.46 0.71,-4.02 -4.44,-7.08 -7.71,-4.88 z"
         id="path11-4"
         style="opacity:1;fill:#ffffff" />
      <path
         d="m 260.26,138.16 c 6.25,-2.71 13.16,-1.65 19.76,-1.87 6.02,-0.32 12.44,1.41 16.86,5.64 3.14,2.8 1.26,7.18 -1.56,9.37 -3.91,1.82 -7.92,4 -12.38,3.79 -7.75,-0.27 -15.88,1.18 -23.25,-1.94 -3.53,-1 -6.3904,-3.6244 -6.5404,-7.9368 0.5408,-3.9524 3.6604,-6.1832 7.1104,-7.0532 z"
         id="path13-9"
         style="opacity:1;fill:#ffffff" />
      <path
         d="m 316.5,138.76 c 5.03,-1.39 10.31,-0.64 15.46,-0.84 6.53,-0.27 13.66,0.84 18.55,5.54 2.88,2.29 1.37,6.99 -1.33,8.82 -5.98,4.57 -13.92,4.51 -21.1,4.32 -7.1,0.3 -14.98,-0.31 -20.48,-5.34 -1.38,-1.98 -2.39,-4.65 -1,-6.89 2.58,-2.9 6.19,-4.64 9.9,-5.61 z"
         id="path15-0"
         style="opacity:1;fill:#ffffff" />
      <path
         d="m 201.85,151.9 c 2.44,-0.02 4.88,-0.02 7.32,-0.02 0.0136,43.58348 0.0132,87.01555 -0.1548,124.11686 17.73275,-34.62597 34.13467,-65.01785 51.83475,-98.11686 1.99,1.14 4,2.24 6.1,3.18 -19.67065,37.53908 -35.61081,68.3738 -53.13,101.85 19.67813,-9.48603 37.58626,-17.85199 55.26,-26.81 0.99,2.14 2.1,4.22 3.15,6.33 -21.16181,10.23993 -39.30303,18.92446 -60.12,28.26 1.44,26.57 2.5,53.03797 3.82,79.62797 -6.35,0.45 -12.73,0.74043 -19.1,0.58043 1.50843,-27.75416 2.34922,-54.04446 3.58,-79.9084 -21.10224,-8.40649 -44.45448,-18.52424 -63.1324,-26.7696 1.0792,-2.636 1.806,-3.954 2.7324,-6.2704 19.84565,8.62183 39.98486,17.21195 56.98212,24.05081 -18.51104,-33.27105 -38.69972,-68.15577 -56.08081,-99.36212 2.27065,-1.31 4.05869,-2.42869 5.98869,-3.52869 18.2766,32.74637 38.79273,68.2478 54.95606,96.61475 0.16041,-42.04141 -0.0494,-87.16167 -0.006,-123.82475 z"
         id="path17-0"
         style="opacity:1;fill:#ffffff" />
      <path
         d="m 275.2,160.42 c 8.33,-2.54 17.12,-2.38 25.72,-1.88 5.87,0.68 13.12,2.77 14.91,9.21 0.14,4.04 -2.6916,6.7968 -6.894,8.096 -6.6336,2.3444 -14.726,1.524 -21.926,1.684 -6.12869,-0.28737 -12.61931,-0.90474 -16.61,-4.8136 -1.5536,-2.7896 -0.96107,-5.42126 0.0953,-8.44406 2.03761,-2.25981 1.90255,-2.20365 4.70467,-3.85234 z"
         id="path19-7"
         style="opacity:1;fill:#ffffff" />
      <path
         d="m 88.95,215.95 c 3.81,-1.77 8.22,-2.4 12.29,-1.2 5.73,0.93 9.28,6.7 9.66,12.14 -0.38,4.58 -1.86766,9.19117 -4.35934,11.99519 -0.54131,1.01013 0.55867,1.4805 1.14934,0.81481 2.32,-3.87 5.88,-7.22 10.43,-8.15 3.08,-1.03 6.21,0.15 9.18,0.97 3.72,2.37 7.26,5.78 7.77,10.41 1.31,5.21 -1.94,10.13 -5.73,13.35 -4.09402,3.37935 -12.10248,3.84626 -15.57618,1.09369 -1.4158,-0.79806 -1.86009,0.89064 -0.85939,1.1309 1.3335,0.43398 4.04917,1.23621 6.49917,2.85541 1.73,1.534 4.1064,3.56 5.1364,6.03 4.01,7.01 -0.77,16.74 -8.33,18.79 -4.83,0.88 -10.57,0.58 -13.97,-3.44 -4.062523,-2.93457 -4.629138,-11.83983 -4.410101,-13.93163 -0.07233,-1.11359 -1.372434,-0.91585 -1.496754,-0.12143 0.450523,2.21014 0.648922,8.03704 -3.123145,12.59305 -5.33,7.55 -19.01,7.39 -23.07,-1.34 -3.65,-5.75 -2.08,-13.69 2.92,-18.12 2.4,-1.81 4.709654,-2.95705 7.987969,-3.81406 1.363599,-0.408 0.707389,-2.02428 -0.579012,-1.38028 -2.069839,1.06024 -4.931017,1.63125 -7.428957,1.61434 -7.9,0.4 -15.47,-7.26 -14.27,-15.23 0.71,-8.57 10.73,-15.25 18.77,-11.44 3.905797,1.28808 7.715841,6.5945 9.19645,8.51728 0.721983,0.43325 1.457383,-0.36385 1.016591,-0.87261 -1.520585,-2.08662 -4.377322,-6.30826 -4.793041,-10.16471 -0.98,-5.16 2.1,-10.02 5.99,-13.1 m 0.81,25.7 c -2.2,1.58 -3.9,3.68 -5.18,6.04 -2.68,6.48 0.95,14.67 7.65,16.84 4.23,1.78 8.96,0.72 12.78,-1.52 1.7324,-1.4996 1.9372,-1.8644 3.38,-3.82 1.58,-3.84 1.94,-8.58 0.08,-12.36 l -0.97,-2.07 c -4.37,-5.08 -11.9,-6.38 -17.74,-3.11 z"
         id="path21"
         style="opacity:1;fill:#ffffff" />
      <path
         d="m 283.17,226.4 c 13.04,-6.93 29.19,-7.08 42.7,-1.41 5.48,2.97 11.5,7.04 12.89,13.55 0.87,3.94 -1.12,7.84 -3.5,10.87 -6.64,0.2 -13.3,-0.06 -19.94,0.12 2.3,9.76 6.44831,31.25494 6.44831,31.25494 0,0 -3.78891,4.97738 -6.03831,7.63506 -6.53,0.07 -13.07,0.01 -19.6,0.06 -2.09,-2.29 -4.05,-4.7 -5.68,-7.34 1.32,-10.65 3.87,-21.1 5.54,-31.69 -6.47,0.06 -12.94,0.01 -19.4,0.02 -2.45,-2.53 -4.1,-5.93 -4.19,-9.47 0.71,-6.17 5.64,-10.71 10.77,-13.6 z"
         id="path23"
         style="opacity:1;fill:#ffffff" />
    </g>
  </g>
</svg>
