<?xml version="1.0" encoding="UTF-8" standalone="no"?>
<!DOCTYPE svg PUBLIC "-//W3C//DTD SVG 1.1//EN" "http://www.w3.org/Graphics/SVG/1.1/DTD/svg11.dtd">
<svg width="100%" height="100%" viewBox="0 0 650 140" version="1.1" xmlns="http://www.w3.org/2000/svg" xmlns:xlink="http://www.w3.org/1999/xlink" xml:space="preserve" xmlns:serif="http://www.serif.com/" style="fill-rule:evenodd;clip-rule:evenodd;stroke-linejoin:round;stroke-miterlimit:2;">
    <g transform="matrix(1,0,0,1,-1,-254)">
        <path d="M168.1,310.9C166.3,304.5 163.7,297.9 155.1,297.9C149.3,297.6 144.4,302 144.1,307.8L144.1,308.7C144.1,316 148.7,319.3 156.7,323.3C164.6,327.3 173.8,331.9 173.8,342.9C173.8,353.3 165,361.4 152,361.4C148.7,361.3 145.4,360.8 142.3,359.9C140.6,359.3 139,358.7 137.4,357.9C136.2,352.9 135.3,347.8 134.8,342.7L137.7,342C139.2,348 143.7,357.9 153.8,357.9C161.3,357.9 165.7,353.3 165.7,346C165.7,338.7 160.2,335.2 152.9,331.2C146.5,327.9 136.6,322.8 136.6,311.8C136.6,302.3 144.1,294.1 156.9,294.1C161.1,294.2 165.3,295 169.3,296.3C169.7,299.8 170.2,303.8 171.1,310L168.1,310.9Z" style="fill-rule:nonzero;"/>
    </g>
    <g transform="matrix(1,0,0,1,-1,-254)">
        <path d="M234.3,360.1L234.3,357.5C240,356.8 241.1,356.6 241.1,349.6L241.1,333C241.1,325.9 238.7,321.5 232.5,321.5C228.4,321.9 224.5,323.7 221.5,326.6C221.7,328 221.8,329.4 221.7,330.8L221.7,350C221.7,356.2 222.6,356.8 228.1,357.5L228.1,360.1L206.9,360.1L206.9,357.5C213.1,356.8 214,356.4 214,350L214,333C214,325.7 211.4,321.7 205.4,321.7C201.4,321.7 197.7,324.3 194.6,326.8L194.6,350C194.6,356.4 195.5,357.1 200.1,357.5L200.1,360.1L179.4,360.1L179.4,357.5C185.8,356.8 186.9,356.4 186.9,350L186.9,329.5C186.9,323.1 186.7,322.7 180.9,321.8L180.9,319.6C185.6,318.8 190.2,317.5 194.6,315.6L194.6,323.5C196.6,322.2 198.8,320.4 201.9,318.4C204.3,316.7 207.1,315.8 210.1,315.8C215.1,315.9 219.6,319.2 221.1,324C224,321.8 226.8,320 229.3,318.5C231.5,316.9 234.1,316 236.8,315.9C244.5,315.9 249.4,321.4 249.4,330.9L249.4,349.9C249.4,356.5 250.3,357 255.8,357.4L255.8,360L234.4,360L234.3,360.1Z" style="fill-rule:nonzero;"/>
    </g>
    <g transform="matrix(1,0,0,1,-1,-254)">
        <path d="M260.8,360.1L260.8,357.5C267,356.8 267.6,356.4 267.6,349.6L267.6,329.3C267.6,323.1 267.4,322.9 261.4,321.8L261.4,319.4C266.2,318.7 270.8,317.4 275.3,315.6L275.3,349.6C275.3,356.2 276,356.9 282.4,357.5L282.4,360.1L260.8,360.1ZM265.9,302.3C265.9,299.5 268.2,297.3 271,297.2C273.7,297.2 275.8,299.3 275.9,302L275.9,302.3C275.9,305 273.7,307.3 270.9,307.4C268.1,307.1 266,305 265.9,302.3Z" style="fill-rule:nonzero;"/>
    </g>
    <g transform="matrix(1,0,0,1,-1,-254)">
        <path d="M305.6,359.9C304.3,360.6 302.9,361.1 301.4,361.2C295.2,361.2 291.7,357.2 291.7,349.5L291.7,320.8L284.9,320.8L284.5,319.9L287.1,317L291.7,317L291.7,309.7L298.1,303.3L299.4,303.5L299.4,317L310.7,317C311.6,318.1 311.3,319.8 310.2,320.6L310.1,320.7L299.6,320.7L299.6,346.1C299.6,354 302.9,355.6 305.3,355.6C307.5,355.5 309.6,354.9 311.5,353.8L312.4,356.4L305.6,359.9Z" style="fill-rule:nonzero;"/>
    </g>
    <g transform="matrix(1,0,0,1,-1,-254)">
        <path d="M343.3,360.1L343.3,357.5C349,356.8 349.7,356.4 349.7,350L349.7,333.7C349.7,325.5 346.6,321.6 340,321.6C336,321.7 332.3,323.5 329.8,326.7L329.8,350.1C329.8,356.5 330.2,357.2 336.2,357.6L336.2,360.2L315.2,360.2L315.2,357.6C321.2,357.2 322,356.5 322,350.1L322,303.1C322,296.9 321.8,296.5 315.4,295.8L315.4,293.6C320.3,292.8 325.2,291.6 330,290.1L330,323C333.5,319.5 338.8,315.7 344.1,315.7C352,315.7 357.8,320.8 357.8,332.5L357.8,349.7C357.8,356.1 358.5,356.8 364.2,357.2L364.2,359.8L343.2,359.8L343.3,360.1Z" style="fill-rule:nonzero;"/>
    </g>
    <g transform="matrix(1,0,0,1,-1,-254)">
        <path d="M394.4,328.5C392.6,322.8 389.1,318.8 384.2,318.8C380.7,318.8 377.8,321.6 377.8,325.1L377.8,325.6C377.8,330 381.8,332.2 386.2,334.2C393.7,337.3 398.6,340.8 398.6,347.7C398.6,356.7 390.2,361.4 382.3,361.4C378.3,361.5 374.4,360.4 371,358.1C370,354.3 369.5,350.4 369.5,346.4L372.1,346C373.9,352.4 378.3,358.1 384.2,358.1C388,358.2 391.2,355.1 391.3,351.3C391.3,346.9 388.4,344.7 383.6,342.3C377.6,339.4 371.2,336.3 371.2,328.6C371.2,321.8 377.2,315.8 386.2,315.8C389.2,315.8 392.2,316.4 395,317.6C396,321.1 396.7,324.6 397.2,328.2L394.4,328.5Z" style="fill-rule:nonzero;"/>
    </g>
    <g transform="matrix(1,0,0,1,-1,-254)">
        <path d="M449,337.8C449,353.7 437.3,361.2 427.6,361.2C415.8,361.3 406.1,351.8 406,340L406,339.3C406,323 418.6,315.7 427.6,315.7C439.4,315.7 449,325.3 449,337.2L449,337.8ZM415.3,336.3C415.3,348.7 420.8,357.9 428.8,357.9C435,357.9 440.1,353.3 440.1,339.8C440.1,328.3 435.5,318.8 426.9,318.8C420.6,319 415.3,325.2 415.3,336.3Z" style="fill-rule:nonzero;"/>
    </g>
    <g transform="matrix(1,0,0,1,-1,-254)">
        <path d="M482.7,360.1L482.7,357.5C488.4,356.8 489.1,356.2 489.1,349.3L489.1,332.7C489.1,325.9 486.7,321.4 480.1,321.4C476,321.8 472.2,323.6 469.3,326.5L469.3,349.7C469.3,356.3 470,356.8 475.7,357.4L475.7,360L454.3,360L454.3,357.4C460.9,356.7 461.6,356.3 461.6,349.7L461.6,329.2C461.6,322.8 460.9,322.6 455.6,321.7L455.6,319.5C460.3,318.7 464.9,317.4 469.3,315.5L469.3,323.4C471.3,321.9 473.5,320.5 475.9,318.8C478.3,317.1 481.1,316.1 484.1,315.9C491.8,315.9 496.9,321.4 496.9,330.9L496.9,349.9C496.9,356.5 497.3,357 503.1,357.6L503.1,360.2L482.8,360.2L482.8,360.1L482.7,360.1Z" style="fill-rule:nonzero;"/>
    </g>
    <g transform="matrix(1,0,0,1,-1,-254)">
        <path d="M508.6,360.1L508.6,357.5C514.8,356.8 515.4,356.4 515.4,349.6L515.4,329.3C515.4,323.1 515.2,322.9 509.2,321.8L509.2,319.4C514,318.7 518.6,317.4 523.1,315.6L523.1,349.6C523.1,356.2 523.8,356.9 530.2,357.5L530.2,360.1L508.6,360.1ZM513.9,302.3C513.9,299.5 516.2,297.3 519,297.2C521.7,297.2 523.8,299.3 523.9,302L523.9,302.3C523.9,305.1 521.6,307.3 518.8,307.4C516.1,307.1 514,305 513.9,302.3Z" style="fill-rule:nonzero;"/>
    </g>
    <g transform="matrix(1,0,0,1,-1,-254)">
        <path d="M566.5,361.2C564.8,361.1 563.2,360.5 561.9,359.4C560.8,358.1 560,356.6 559.5,355C555.5,357.6 550.9,361.4 547.8,361.4C541.2,361.4 535.9,356.1 535.9,349.5L535.9,349.3C535.9,344.4 538.5,341.4 543.8,339.6C549.8,337.6 556.8,335 559,333.2L559,331.4C559,324.3 555.7,320.1 550.6,320.1C548.9,320.1 547.3,320.8 546.2,322.1C544.7,323.9 543.7,326.1 543.3,328.5C543,329.8 541.8,330.8 540.4,330.7C538.1,330.5 536.3,328.8 536,326.5C536,325 537.3,323.9 539.1,322.5C543.6,319.4 548.6,317 553.9,315.7C556.8,315.7 559.7,316.6 562.1,318.3C565.6,321.2 566.5,325.1 566.5,330.4L566.5,348.7C566.5,353.1 568.3,354.7 570,354.7C571.3,354.7 572.5,354.3 573.5,353.6L574.4,356.2L566.5,361.2ZM559.5,336.5C557.5,337.6 552.7,339.6 550.7,340.7C546.9,342.5 544.7,344.5 544.7,348C544.5,352 547.6,355.3 551.6,355.5L551.8,355.5C554.8,355.2 557.5,354 559.7,352L559.7,336.6L559.5,336.5Z" style="fill-rule:nonzero;"/>
    </g>
    <g transform="matrix(1,0,0,1,-1,-254)">
        <path d="M605.7,360.1L605.7,357.5C611.4,356.8 612.1,356.2 612.1,349.3L612.1,332.7C612.1,325.9 609.7,321.4 603.1,321.4C599,321.8 595.2,323.6 592.3,326.5L592.3,349.7C592.3,356.3 593,356.8 598.7,357.4L598.7,360L577.3,360L577.3,357.4C583.9,356.7 584.6,356.3 584.6,349.7L584.6,329.2C584.6,322.8 583.9,322.6 578.6,321.7L578.6,319.5C583.3,318.7 587.9,317.4 592.3,315.5L592.3,323.4C594.3,321.9 596.5,320.5 598.9,318.8C601.3,317.1 604.1,316.1 607.1,315.9C614.8,315.9 619.9,321.4 619.9,330.9L619.9,349.9C619.9,356.5 620.3,357 626.1,357.6L626.1,360.2L605.8,360.2L605.7,360.1Z" style="fill-rule:nonzero;"/>
    </g>
    <g transform="matrix(1,0,0,1,-1,-254)">
        <circle cx="67" cy="325" r="41" style="fill:rgb(24,145,203);"/>
    </g>
    <g transform="matrix(1,0,0,1,-1,-254)">
        <path d="M91.8,333.2C90.4,330.4 87.6,328.7 84.5,328.6L102.2,324.8L84.5,321C86.9,318.9 90.1,317.7 93.3,317.7C97.3,317.7 100.6,312.8 98.4,309.3C98.4,309.3 97.7,315 90.5,313.1C87.6,312.1 84.3,312.9 82.1,315.1L92.1,299.9L76.9,309.8C77.2,306.6 78.6,303.5 80.9,301.2C83.5,298.3 82.7,292.6 78.5,291.5C78.5,291.5 82,295.9 75.6,299.9C72.8,301.3 71.1,304.1 71,307.2L67.2,289.5L63.4,307.2C61.3,304.8 60.1,301.6 60.1,298.4C60.1,294.4 55.2,291.1 51.7,293.3C51.7,293.3 57.4,294 55.5,301.2C54.5,304.1 55.3,307.4 57.5,309.6L42.2,299.7L50.4,312.1L52.2,315C49,314.7 46,313.3 43.7,311C40.8,308.4 35.1,309.2 34,313.4C34,313.4 38.4,309.9 42.4,316.3C43.8,319.1 46.6,320.8 49.7,320.9L32,324.7L49.7,328.5C47.2,330.5 44.1,331.7 40.9,331.8C36.9,331.8 33.6,336.7 35.8,340.2C35.8,340.2 36.5,334.5 43.7,336.4C46.6,337.4 49.9,336.6 52.1,334.4L42,349.5L57.2,339.6C56.9,342.8 55.5,345.9 53.2,348.2C50.6,351.1 51.4,356.8 55.6,357.9C55.6,357.9 52.1,353.5 58.5,349.5C61.3,348.1 63,345.3 63.1,342.2L66.9,359.9L70.7,342.2C72.8,344.6 74,347.8 74,351C74,355 78.9,358.3 82.4,356.1C82.4,356.1 76.7,355.4 78.6,348.2C79.6,345.3 78.8,342 76.6,339.8L91.8,349.7L86.5,341.8L81.9,334.7C85.1,335 88.2,336.4 90.5,338.7C93.4,341.3 99.1,340.5 100.2,336.3C99.9,336.3 95.5,339.8 91.8,333.2Z" style="fill:rgb(247,206,23);fill-rule:nonzero;"/>
    </g>
</svg>
