<?xml version="1.0" encoding="UTF-8" standalone="no"?>
<svg
   xmlns:dc="http://purl.org/dc/elements/1.1/"
   xmlns:cc="http://creativecommons.org/ns#"
   xmlns:rdf="http://www.w3.org/1999/02/22-rdf-syntax-ns#"
   xmlns:svg="http://www.w3.org/2000/svg"
   xmlns="http://www.w3.org/2000/svg"
   viewBox="0 0 866.66669 200"
   xml:space="preserve"
   id="svg2"
   version="1.1"><metadata
     id="metadata8"><rdf:RDF><cc:Work
         rdf:about=""><dc:format>image/svg+xml</dc:format><dc:type
           rdf:resource="http://purl.org/dc/dcmitype/StillImage" /></cc:Work></rdf:RDF></metadata><defs
     id="defs6"><clipPath
       id="clipPath18"
       clipPathUnits="userSpaceOnUse"><path
         id="path16"
         d="M 0,150 H 650 V 0 H 0 Z" /></clipPath><clipPath
       id="clipPath38"
       clipPathUnits="userSpaceOnUse"><path
         id="path36"
         d="M 11.05,13.279 H 167.983 V 47.344 H 11.05 Z" /></clipPath><clipPath
       id="clipPath326"
       clipPathUnits="userSpaceOnUse"><path
         id="path324"
         d="M 168.197,13.273 H 325.238 V 47.164 H 168.197 Z" /></clipPath><clipPath
       id="clipPath378"
       clipPathUnits="userSpaceOnUse"><path
         id="path376"
         d="M 325.658,13.154 H 482.106 V 47.068 H 325.658 Z" /></clipPath><clipPath
       id="clipPath430"
       clipPathUnits="userSpaceOnUse"><path
         id="path428"
         d="M 482.176,13.313 H 638.944 V 47.158 H 482.176 Z" /></clipPath></defs><g
     transform="matrix(1.3333333,0,0,-1.3333333,0,200)"
     id="g10"><g
       id="g12"><g
         clip-path="url(#clipPath18)"
         id="g14"><text
           id="text22"
           style="font-variant:normal;font-weight:600;font-stretch:normal;font-size:89px;font-family:'Myriad Pro Light';-inkscape-font-specification:MyriadPro-Semibold;writing-mode:lr-tb;fill:#58595b;fill-opacity:1;fill-rule:nonzero;stroke:none"
           transform="matrix(1,0,0,-1,11.1211,74.3145)"><tspan
             id="tspan20"
             y="0"
             x="0 50.320599 92.978302 122.8823 165.9494 186.8822 235.65421 284.444 333.216 379.14001 397.56299 445.89001 474.28101 492.70401 534.44501 555.53802 581.97101">Catalogue of Life</tspan></text>
</g></g><path
       id="path24"
       style="fill:#1782b0;fill-opacity:1;fill-rule:nonzero;stroke:none"
       d="M 168.29,13.203 H 11.357 V 47.349 H 168.29 Z" /><path
       id="path26"
       style="fill:#f4ed86;fill-opacity:1;fill-rule:nonzero;stroke:none"
       d="M 325.228,13.219 H 168.291 v 34.104 h 156.937 z" /><path
       id="path28"
       style="fill:#29b264;fill-opacity:1;fill-rule:nonzero;stroke:none"
       d="M 639.09,13.203 H 482.155 V 47.266 H 639.09 Z" /><path
       id="path30"
       style="fill:#e53443;fill-opacity:1;fill-rule:nonzero;stroke:none"
       d="M 482.155,13.219 H 325.227 v 34.063 h 156.928 z" /><g
       id="g32"><g
         clip-path="url(#clipPath38)"
         id="g34"><g
           transform="translate(113.3071,0.3242)"
           id="g40"><path
             id="path42"
             style="fill:#0083b4;fill-opacity:1;fill-rule:nonzero;stroke:none"
             d="m 0,0 c 0,-4.395 -3.561,-7.959 -7.958,-7.959 -4.39,0 -7.956,3.564 -7.956,7.959 0,4.395 3.566,7.961 7.956,7.961 C -3.561,7.961 0,4.395 0,0" /></g><g
           transform="translate(73.7876,9.0801)"
           id="g44"><path
             id="path46"
             style="fill:#00aeef;fill-opacity:1;fill-rule:nonzero;stroke:none"
             d="m 0,0 c 0,-4.393 -3.56,-7.958 -7.955,-7.958 -4.393,0 -7.963,3.565 -7.963,7.958 0,4.394 3.57,7.959 7.963,7.959 C -3.56,7.959 0,4.394 0,0" /></g><g
           transform="translate(92.8887,10.7969)"
           id="g48"><path
             id="path50"
             style="fill:#00aeef;fill-opacity:1;fill-rule:nonzero;stroke:none"
             d="m 0,0 c 0,-4.399 -3.561,-7.959 -7.955,-7.959 -4.398,0 -7.958,3.56 -7.958,7.959 0,4.395 3.56,7.955 7.958,7.955 C -3.561,7.955 0,4.395 0,0" /></g><g
           transform="translate(13.1909,-2.8652)"
           id="g52"><path
             id="path54"
             style="fill:#0083b4;fill-opacity:1;fill-rule:nonzero;stroke:none"
             d="m 0,0 c 0,-3.951 -3.03,-7.16 -6.764,-7.16 -3.74,0 -6.763,3.209 -6.763,7.16 0,3.956 3.023,7.162 6.763,7.162 C -3.03,7.162 0,3.956 0,0" /></g><g
           transform="translate(28.3013,17.0293)"
           id="g56"><path
             id="path58"
             style="fill:#0083b4;fill-opacity:1;fill-rule:nonzero;stroke:none"
             d="m 0,0 c 0,-2.203 -1.604,-3.98 -3.571,-3.98 -1.982,0 -3.586,1.777 -3.586,3.98 0,2.197 1.604,3.975 3.586,3.975 C -1.604,3.975 0,2.197 0,0" /></g><g
           transform="translate(34.6714,35.3281)"
           id="g60"><path
             id="path62"
             style="fill:#00aeef;fill-opacity:1;fill-rule:nonzero;stroke:none"
             d="m 0,0 c 0,-3.08 -2.227,-5.566 -4.971,-5.566 -2.748,0 -4.97,2.486 -4.97,5.566 0,3.076 2.222,5.567 4.97,5.567 C -2.227,5.567 0,3.076 0,0" /></g><g
           transform="translate(63.3154,41.2949)"
           id="g64"><path
             id="path66"
             style="fill:#0083b4;fill-opacity:1;fill-rule:nonzero;stroke:none"
             d="m 0,0 c 0,-3.301 -2.314,-5.967 -5.175,-5.967 -2.855,0 -5.165,2.666 -5.165,5.967 0,3.294 2.31,5.965 5.165,5.965 C -2.314,5.965 0,3.294 0,0" /></g><g
           transform="translate(122.5947,47.2598)"
           id="g68"><path
             id="path70"
             style="fill:#0083b4;fill-opacity:1;fill-rule:nonzero;stroke:none"
             d="m 0,0 c 0,-3.294 -2.32,-5.965 -5.175,-5.965 -2.856,0 -5.175,2.671 -5.175,5.965 0,3.295 2.319,5.969 5.175,5.969 C -2.32,5.969 0,3.295 0,0" /></g><g
           transform="translate(150.0933,41.2949)"
           id="g72"><path
             id="path74"
             style="fill:#00aeef;fill-opacity:1;fill-rule:nonzero;stroke:none"
             d="m 0,0 c 0,-3.301 -2.314,-5.967 -5.169,-5.967 -2.851,0 -5.17,2.666 -5.17,5.967 0,3.294 2.319,5.965 5.17,5.965 C -2.314,5.965 0,3.294 0,0" /></g><g
           transform="translate(182.9365,28.041)"
           id="g76"><path
             id="path78"
             style="fill:#0083b4;fill-opacity:1;fill-rule:nonzero;stroke:none"
             d="m 0,0 c 0,-2.859 -2.197,-5.174 -4.915,-5.174 -2.708,0 -4.905,2.315 -4.905,5.174 0,2.856 2.197,5.171 4.905,5.171 C -2.197,5.171 0,2.856 0,0" /></g><g
           transform="translate(237.5767,51.6445)"
           id="g80"><path
             id="path82"
             style="fill:#414142;fill-opacity:1;fill-rule:nonzero;stroke:none"
             d="m 0,0 c 0,-3.148 -2.554,-5.703 -5.707,-5.703 -3.146,0 -5.7,2.555 -5.7,5.703 0,3.148 2.554,5.705 5.7,5.705 C -2.554,5.705 0,3.148 0,0" /></g><g
           transform="translate(215.0327,77.502)"
           id="g84"><path
             id="path86"
             style="fill:#414142;fill-opacity:1;fill-rule:nonzero;stroke:none"
             d="m 0,0 c 0,-2.343 -1.9,-4.24 -4.246,-4.24 -2.339,0 -4.239,1.897 -4.239,4.24 0,2.344 1.9,4.24 4.239,4.24 C -1.9,4.24 0,2.344 0,0" /></g><g
           transform="translate(206.5474,46.4678)"
           id="g88"><path
             id="path90"
             style="fill:#0083b4;fill-opacity:1;fill-rule:nonzero;stroke:none"
             d="m 0,0 c 0,-2.854 -2.232,-5.173 -4.98,-5.173 -2.754,0 -4.981,2.319 -4.981,5.173 0,2.856 2.227,5.177 4.981,5.177 C -2.232,5.177 0,2.856 0,0" /></g><g
           transform="translate(145.2666,77.502)"
           id="g92"><path
             id="path94"
             style="fill:#0083b4;fill-opacity:1;fill-rule:nonzero;stroke:none"
             d="m 0,0 c 0,-2.343 -1.784,-4.24 -3.98,-4.24 -2.197,0 -3.98,1.897 -3.98,4.24 0,2.344 1.783,4.24 3.98,4.24 C -1.784,4.24 0,2.344 0,0" /></g><g
           transform="translate(243.1294,73.3242)"
           id="g96"><path
             id="path98"
             style="fill:#414142;fill-opacity:1;fill-rule:nonzero;stroke:none"
             d="m 0,0 c 0,-2.31 -1.695,-4.184 -3.775,-4.184 -2.095,0 -3.786,1.874 -3.786,4.184 0,2.309 1.691,4.178 3.786,4.178 C -1.695,4.178 0,2.309 0,0" /></g><g
           transform="translate(239.354,72.5156)"
           id="g100"><path
             id="path102"
             style="fill:#414142;fill-opacity:1;fill-rule:nonzero;stroke:none"
             d="m 0,0 c 0,-1.863 -1.676,-3.375 -3.744,-3.375 -2.064,0 -3.74,1.512 -3.74,3.375 0,1.872 1.676,3.389 3.74,3.389 C -1.676,3.389 0,1.872 0,0" /></g><g
           transform="translate(260.6313,56.8105)"
           id="g104"><path
             id="path106"
             style="fill:#414142;fill-opacity:1;fill-rule:nonzero;stroke:none"
             d="m 0,0 c 0,-1.979 -1.512,-3.582 -3.382,-3.582 -1.865,0 -3.382,1.603 -3.382,3.582 0,1.975 1.517,3.58 3.382,3.58 C -1.512,3.58 0,1.975 0,0" /></g><g
           transform="translate(71.6675,48.457)"
           id="g108"><path
             id="path110"
             style="fill:#0083b4;fill-opacity:1;fill-rule:nonzero;stroke:none"
             d="m 0,0 c 0,-2.635 -2.222,-4.777 -4.976,-4.777 -2.743,0 -4.965,2.142 -4.965,4.777 0,2.635 2.222,4.771 4.965,4.771 C -2.222,4.771 0,2.635 0,0" /></g><g
           transform="translate(86.3857,52.6289)"
           id="g112"><path
             id="path114"
             style="fill:#00aeef;fill-opacity:1;fill-rule:nonzero;stroke:none"
             d="m 0,0 c 0,-2.304 -1.687,-4.172 -3.781,-4.172 -2.085,0 -3.775,1.868 -3.775,4.172 0,2.305 1.69,4.182 3.775,4.182 C -1.687,4.182 0,2.305 0,0" /></g><g
           transform="translate(130.9419,55.293)"
           id="g116"><path
             id="path118"
             style="fill:#0083b4;fill-opacity:1;fill-rule:nonzero;stroke:none"
             d="m 0,0 c 0,-1.146 -1.073,-2.064 -2.386,-2.064 -1.318,0 -2.39,0.918 -2.39,2.064 0,1.131 1.072,2.057 2.39,2.057 C -1.073,2.057 0,1.131 0,0" /></g><g
           transform="translate(247.9058,44.8701)"
           id="g120"><path
             id="path122"
             style="fill:#414142;fill-opacity:1;fill-rule:nonzero;stroke:none"
             d="m 0,0 c 0,-1.973 -1.517,-3.575 -3.382,-3.575 -1.874,0 -3.382,1.602 -3.382,3.575 0,1.983 1.508,3.587 3.382,3.587 C -1.517,3.587 0,1.983 0,0" /></g><g
           transform="translate(233.5771,32.5391)"
           id="g124"><path
             id="path126"
             style="fill:#414142;fill-opacity:1;fill-rule:nonzero;stroke:none"
             d="m 0,0 c 0,-1.532 -1.155,-2.777 -2.586,-2.777 -1.425,0 -2.584,1.245 -2.584,2.777 0,1.543 1.159,2.789 2.584,2.789 C -1.155,2.789 0,1.543 0,0" /></g><g
           transform="translate(231.8696,77.1348)"
           id="g128"><path
             id="path130"
             style="fill:#414142;fill-opacity:1;fill-rule:nonzero;stroke:none"
             d="m 0,0 c 0,-2.555 -1.844,-4.619 -4.117,-4.619 -2.274,0 -4.118,2.064 -4.118,4.619 0,2.543 1.844,4.607 4.118,4.607 C -1.844,4.607 0,2.543 0,0" /></g><g
           transform="translate(249.8877,26.3154)"
           id="g132"><path
             id="path134"
             style="fill:#414142;fill-opacity:1;fill-rule:nonzero;stroke:none"
             d="m 0,0 c 0,-1.905 -1.506,-3.448 -3.376,-3.448 -1.871,0 -3.382,1.543 -3.382,3.448 0,1.903 1.511,3.446 3.382,3.446 C -1.506,3.446 0,1.903 0,0" /></g><g
           transform="translate(107.8662,32.1387)"
           id="g136"><path
             id="path138"
             style="fill:#28aae1;fill-opacity:1;fill-rule:nonzero;stroke:none"
             d="m 0,0 c 0,-4.393 -3.561,-7.953 -7.948,-7.953 -4.404,0 -7.96,3.56 -7.96,7.953 0,4.398 3.556,7.959 7.96,7.959 C -3.561,7.959 0,4.398 0,0" /></g><g
           transform="translate(120.1982,29.7617)"
           id="g140"><path
             id="path142"
             style="fill:#00aeef;fill-opacity:1;fill-rule:nonzero;stroke:none"
             d="m 0,0 c 0,-4.4 -3.555,-7.961 -7.953,-7.961 -4.395,0 -7.955,3.561 -7.955,7.961 0,4.391 3.56,7.951 7.955,7.951 C -3.555,7.951 0,4.391 0,0" /></g><g
           transform="translate(130.5483,22.8672)"
           id="g144"><path
             id="path146"
             style="fill:#00aeef;fill-opacity:1;fill-rule:nonzero;stroke:none"
             d="m 0,0 c 0,-4.392 -3.566,-7.952 -7.954,-7.952 -4.399,0 -7.964,3.56 -7.964,7.952 0,4.399 3.565,7.96 7.964,7.96 C -3.566,7.96 0,4.399 0,0" /></g><g
           transform="translate(142.4814,14.915)"
           id="g148"><path
             id="path150"
             style="fill:#00aeef;fill-opacity:1;fill-rule:nonzero;stroke:none"
             d="m 0,0 c 0,-4.394 -3.565,-7.96 -7.953,-7.96 -4.399,0 -7.96,3.566 -7.96,7.96 0,4.392 3.561,7.952 7.96,7.952 C -3.565,7.952 0,4.392 0,0" /></g><g
           transform="translate(142.4814,14.915)"
           id="g152"><path
             id="path154"
             style="fill:none;stroke:#005b7f;stroke-width:0.1;stroke-linecap:butt;stroke-linejoin:miter;stroke-miterlimit:10;stroke-dasharray:none;stroke-opacity:1"
             d="m 0,0 c 0,-4.394 -3.565,-7.96 -7.953,-7.96 -4.399,0 -7.96,3.566 -7.96,7.96 0,4.392 3.561,7.952 7.96,7.952 C -3.565,7.952 0,4.392 0,0 Z" /></g><g
           transform="translate(145.2666,1.9092)"
           id="g156"><path
             id="path158"
             style="fill:#0083b4;fill-opacity:1;fill-rule:nonzero;stroke:none"
             d="m 0,0 c 0,-4.394 -3.562,-7.954 -7.96,-7.954 -4.388,0 -7.954,3.56 -7.954,7.954 0,4.392 3.566,7.958 7.954,7.958 C -3.562,7.958 0,4.392 0,0" /></g><g
           transform="translate(145.2666,1.9092)"
           id="g160"><path
             id="path162"
             style="fill:none;stroke:#005b7f;stroke-width:0.1;stroke-linecap:butt;stroke-linejoin:miter;stroke-miterlimit:10;stroke-dasharray:none;stroke-opacity:1"
             d="m 0,0 c 0,-4.394 -3.562,-7.954 -7.96,-7.954 -4.388,0 -7.954,3.56 -7.954,7.954 0,4.392 3.566,7.958 7.954,7.958 C -3.562,7.958 0,4.392 0,0 Z" /></g><g
           transform="translate(96.3315,32.1387)"
           id="g164"><path
             id="path166"
             style="fill:#00aeef;fill-opacity:1;fill-rule:nonzero;stroke:none"
             d="m 0,0 c 0,-4.393 -3.56,-7.953 -7.955,-7.953 -4.398,0 -7.958,3.56 -7.958,7.953 0,4.398 3.56,7.959 7.958,7.959 C -3.56,7.959 0,4.398 0,0" /></g><g
           transform="translate(101.2915,25.5703)"
           id="g168"><path
             id="path170"
             style="fill:#0083b4;fill-opacity:1;fill-rule:nonzero;stroke:none"
             d="m 0,0 c 0,-4.4 -3.565,-7.96 -7.964,-7.96 -4.388,0 -7.954,3.56 -7.954,7.96 0,4.395 3.566,7.955 7.954,7.955 C -3.565,7.955 0,4.395 0,0" /></g><g
           transform="translate(84.3984,30.0244)"
           id="g172"><path
             id="path174"
             style="fill:#00aeef;fill-opacity:1;fill-rule:nonzero;stroke:none"
             d="m 0,0 c 0,-4.392 -3.561,-7.952 -7.955,-7.952 -4.393,0 -7.959,3.56 -7.959,7.952 0,4.397 3.566,7.96 7.959,7.96 C -3.561,7.96 0,4.397 0,0" /></g><g
           transform="translate(61.3281,16.6309)"
           id="g176"><path
             id="path178"
             style="fill:#00aeef;fill-opacity:1;fill-rule:nonzero;stroke:none"
             d="m 0,0 c 0,-4.395 -3.565,-7.961 -7.958,-7.961 -4.395,0 -7.96,3.566 -7.96,7.961 0,4.394 3.565,7.954 7.96,7.954 C -3.565,7.954 0,4.394 0,0" /></g><g
           transform="translate(43.4224,-0.4785)"
           id="g180"><path
             id="path182"
             style="fill:#0083b4;fill-opacity:1;fill-rule:nonzero;stroke:none"
             d="m 0,0 c 0,-4.395 -3.561,-7.954 -7.959,-7.954 -4.393,0 -7.953,3.559 -7.953,7.954 0,4.4 3.56,7.955 7.953,7.955 C -3.561,7.955 0,4.4 0,0" /></g><g
           transform="translate(52.1782,9.4678)"
           id="g184"><path
             id="path186"
             style="fill:#00aeef;fill-opacity:1;fill-rule:nonzero;stroke:none"
             d="m 0,0 c 0,-4.395 -3.565,-7.96 -7.958,-7.96 -4.394,0 -7.954,3.565 -7.954,7.96 0,4.395 3.56,7.96 7.954,7.96 C -3.565,7.96 0,4.395 0,0" /></g><g
           transform="translate(95.5391,23.6602)"
           id="g188"><path
             id="path190"
             style="fill:#00aeef;fill-opacity:1;fill-rule:nonzero;stroke:none"
             d="m 0,0 c 0,-4.393 -3.565,-7.953 -7.953,-7.953 -4.399,0 -7.96,3.56 -7.96,7.953 0,4.391 3.561,7.957 7.96,7.957 C -3.565,7.957 0,4.391 0,0" /></g><g
           transform="translate(95.5391,23.6602)"
           id="g192"><path
             id="path194"
             style="fill:none;stroke:#005b7f;stroke-width:0.1;stroke-linecap:butt;stroke-linejoin:miter;stroke-miterlimit:10;stroke-dasharray:none;stroke-opacity:1"
             d="m 0,0 c 0,-4.393 -3.565,-7.953 -7.953,-7.953 -4.399,0 -7.96,3.56 -7.96,7.953 0,4.391 3.561,7.957 7.96,7.957 C -3.565,7.957 0,4.391 0,0 Z" /></g><g
           transform="translate(107.8765,23.1328)"
           id="g196"><path
             id="path198"
             style="fill:#00aeef;fill-opacity:1;fill-rule:nonzero;stroke:none"
             d="m 0,0 c 0,-4.396 -3.565,-7.957 -7.953,-7.957 -4.399,0 -7.955,3.561 -7.955,7.957 0,4.393 3.556,7.955 7.955,7.955 C -3.565,7.955 0,4.393 0,0" /></g><g
           transform="translate(107.8765,23.1328)"
           id="g200"><path
             id="path202"
             style="fill:none;stroke:#005b7f;stroke-width:0.1;stroke-linecap:butt;stroke-linejoin:miter;stroke-miterlimit:10;stroke-dasharray:none;stroke-opacity:1"
             d="m 0,0 c 0,-4.396 -3.565,-7.957 -7.953,-7.957 -4.399,0 -7.955,3.561 -7.955,7.957 0,4.393 3.556,7.955 7.955,7.955 C -3.565,7.955 0,4.393 0,0 Z" /></g><g
           transform="translate(119.1465,15.7129)"
           id="g204"><path
             id="path206"
             style="fill:#0083b4;fill-opacity:1;fill-rule:nonzero;stroke:none"
             d="m 0,0 c 0,-4.4 -3.567,-7.96 -7.96,-7.96 -4.398,0 -7.953,3.56 -7.953,7.96 0,4.392 3.555,7.951 7.953,7.951 C -3.567,7.951 0,4.392 0,0" /></g><g
           transform="translate(129.752,11.2031)"
           id="g208"><path
             id="path210"
             style="fill:#0083b4;fill-opacity:1;fill-rule:nonzero;stroke:none"
             d="m 0,0 c 0,-4.396 -3.562,-7.957 -7.955,-7.957 -4.398,0 -7.963,3.561 -7.963,7.957 0,4.395 3.565,7.955 7.963,7.955 C -3.562,7.955 0,4.395 0,0" /></g><g
           transform="translate(117.021,11.2031)"
           id="g212"><path
             id="path214"
             style="fill:#00aeef;fill-opacity:1;fill-rule:nonzero;stroke:none"
             d="m 0,0 c 0,-4.396 -3.56,-7.957 -7.958,-7.957 -4.395,0 -7.96,3.561 -7.96,7.957 0,4.395 3.565,7.955 7.96,7.955 C -3.56,7.955 0,4.395 0,0" /></g><g
           transform="translate(135.0586,2.9805)"
           id="g216"><path
             id="path218"
             style="fill:#0083b4;fill-opacity:1;fill-rule:nonzero;stroke:none"
             d="m 0,0 c 0,-4.392 -3.565,-7.957 -7.964,-7.957 -4.388,0 -7.948,3.565 -7.948,7.957 0,4.392 3.56,7.957 7.948,7.957 C -3.565,7.957 0,4.392 0,0" /></g><g
           transform="translate(129.7051,11.4258)"
           id="g220"><path
             id="path222"
             style="fill:#00aeef;fill-opacity:1;fill-rule:nonzero;stroke:none"
             d="m 0,0 c 0,-4.397 -3.561,-7.961 -7.948,-7.961 -4.399,0 -7.96,3.564 -7.96,7.961 0,4.391 3.561,7.951 7.96,7.951 C -3.561,7.951 0,4.391 0,0" /></g><g
           transform="translate(129.7051,11.4258)"
           id="g224"><path
             id="path226"
             style="fill:none;stroke:#005b7f;stroke-width:0.1;stroke-linecap:butt;stroke-linejoin:miter;stroke-miterlimit:10;stroke-dasharray:none;stroke-opacity:1"
             d="m 0,0 c 0,-4.397 -3.561,-7.961 -7.948,-7.961 -4.399,0 -7.96,3.564 -7.96,7.961 0,4.391 3.561,7.951 7.96,7.951 C -3.561,7.951 0,4.391 0,0 Z" /></g><g
           transform="translate(54.6973,-3.3945)"
           id="g228"><path
             id="path230"
             style="fill:#0083b4;fill-opacity:1;fill-rule:nonzero;stroke:none"
             d="m 0,0 c 0,-4.393 -3.56,-7.955 -7.958,-7.955 -4.39,0 -7.955,3.562 -7.955,7.955 0,4.392 3.565,7.957 7.955,7.957 C -3.56,7.957 0,4.392 0,0" /></g><g
           transform="translate(54.6973,-3.3945)"
           id="g232"><path
             id="path234"
             style="fill:none;stroke:#005b7f;stroke-width:0.1;stroke-linecap:butt;stroke-linejoin:miter;stroke-miterlimit:10;stroke-dasharray:none;stroke-opacity:1"
             d="m 0,0 c 0,-4.393 -3.56,-7.955 -7.958,-7.955 -4.39,0 -7.955,3.562 -7.955,7.955 0,4.392 3.565,7.957 7.955,7.957 C -3.56,7.957 0,4.392 0,0 Z" /></g><g
           transform="translate(83.6006,16.4971)"
           id="g236"><path
             id="path238"
             style="fill:#0083b4;fill-opacity:1;fill-rule:nonzero;stroke:none"
             d="m 0,0 c 0,-4.392 -3.555,-7.952 -7.953,-7.952 -4.393,0 -7.955,3.56 -7.955,7.952 0,4.397 3.562,7.96 7.955,7.96 C -3.555,7.96 0,4.397 0,0" /></g><g
           transform="translate(104.29,11.1328)"
           id="g240"><path
             id="path242"
             style="fill:#00aeef;fill-opacity:1;fill-rule:nonzero;stroke:none"
             d="m 0,0 c 0,-4.391 -3.56,-7.951 -7.958,-7.951 -4.388,0 -7.955,3.56 -7.955,7.951 0,4.397 3.567,7.961 7.955,7.961 C -3.56,7.961 0,4.397 0,0" /></g><g
           transform="translate(63.98,4.3018)"
           id="g244"><path
             id="path246"
             style="fill:#0083b4;fill-opacity:1;fill-rule:nonzero;stroke:none"
             d="m 0,0 c 0,-4.397 -3.567,-7.957 -7.96,-7.957 -4.398,0 -7.953,3.56 -7.953,7.957 0,4.399 3.555,7.955 7.953,7.955 C -3.567,7.955 0,4.399 0,0" /></g><g
           transform="translate(100.4482,-0.4727)"
           id="g248"><path
             id="path250"
             style="fill:#0083b4;fill-opacity:1;fill-rule:nonzero;stroke:none"
             d="m 0,0 c 0,-4.395 -3.56,-7.955 -7.953,-7.955 -4.388,0 -7.954,3.56 -7.954,7.955 0,4.395 3.566,7.959 7.954,7.959 C -3.56,7.959 0,4.395 0,0" /></g><g
           transform="translate(100.4482,-0.4727)"
           id="g252"><path
             id="path254"
             style="fill:none;stroke:#005b7f;stroke-width:0.1;stroke-linecap:butt;stroke-linejoin:miter;stroke-miterlimit:10;stroke-dasharray:none;stroke-opacity:1"
             d="m 0,0 c 0,-4.395 -3.56,-7.955 -7.953,-7.955 -4.388,0 -7.954,3.56 -7.954,7.955 0,4.395 3.566,7.959 7.954,7.959 C -3.56,7.959 0,4.395 0,0 Z" /></g><g
           transform="translate(124.4438,0.0586)"
           id="g256"><path
             id="path258"
             style="fill:#0083b4;fill-opacity:1;fill-rule:nonzero;stroke:none"
             d="m 0,0 c 0,-4.395 -3.562,-7.959 -7.955,-7.959 -4.393,0 -7.958,3.564 -7.958,7.959 0,4.395 3.565,7.955 7.958,7.955 C -3.562,7.955 0,4.395 0,0" /></g><g
           transform="translate(124.4438,0.0586)"
           id="g260"><path
             id="path262"
             style="fill:none;stroke:#005b7f;stroke-width:0.1;stroke-linecap:butt;stroke-linejoin:miter;stroke-miterlimit:10;stroke-dasharray:none;stroke-opacity:1"
             d="m 0,0 c 0,-4.395 -3.562,-7.959 -7.955,-7.959 -4.393,0 -7.958,3.564 -7.958,7.959 0,4.395 3.565,7.955 7.958,7.955 C -3.562,7.955 0,4.395 0,0 Z" /></g><g
           transform="translate(72.4648,22.9951)"
           id="g264"><path
             id="path266"
             style="fill:#00aeef;fill-opacity:1;fill-rule:nonzero;stroke:none"
             d="m 0,0 c 0,-4.395 -3.562,-7.96 -7.955,-7.96 -4.393,0 -7.958,3.565 -7.958,7.96 0,4.394 3.565,7.954 7.958,7.954 C -3.562,7.954 0,4.394 0,0" /></g><g
           transform="translate(72.4648,22.9951)"
           id="g268"><path
             id="path270"
             style="fill:none;stroke:#005b7f;stroke-width:0.1;stroke-linecap:butt;stroke-linejoin:miter;stroke-miterlimit:10;stroke-dasharray:none;stroke-opacity:1"
             d="m 0,0 c 0,-4.395 -3.562,-7.96 -7.955,-7.96 -4.393,0 -7.958,3.565 -7.958,7.96 0,4.394 3.565,7.954 7.958,7.954 C -3.562,7.954 0,4.394 0,0 Z" /></g><g
           transform="translate(74.8447,-4.5859)"
           id="g272"><path
             id="path274"
             style="fill:#0083b4;fill-opacity:1;fill-rule:nonzero;stroke:none"
             d="m 0,0 c 0,-4.399 -3.555,-7.955 -7.948,-7.955 -4.393,0 -7.955,3.556 -7.955,7.955 0,4.4 3.562,7.955 7.955,7.955 C -3.555,7.955 0,4.4 0,0" /></g><g
           transform="translate(80.2959,3.7705)"
           id="g276"><path
             id="path278"
             style="fill:#0083b4;fill-opacity:1;fill-rule:nonzero;stroke:none"
             d="m 0,0 c 0,-4.397 -3.561,-7.952 -7.958,-7.952 -4.39,0 -7.955,3.555 -7.955,7.952 0,4.394 3.565,7.954 7.955,7.954 C -3.561,7.954 0,4.394 0,0" /></g><g
           transform="translate(80.2959,3.7705)"
           id="g280"><path
             id="path282"
             style="fill:none;stroke:#005b7f;stroke-width:0.1;stroke-linecap:butt;stroke-linejoin:miter;stroke-miterlimit:10;stroke-dasharray:none;stroke-opacity:1"
             d="m 0,0 c 0,-4.397 -3.561,-7.952 -7.958,-7.952 -4.39,0 -7.955,3.555 -7.955,7.952 0,4.394 3.565,7.954 7.955,7.954 C -3.561,7.954 0,4.394 0,0 Z" /></g><g
           transform="translate(89.4351,-3.3945)"
           id="g284"><path
             id="path286"
             style="fill:#0083b4;fill-opacity:1;fill-rule:nonzero;stroke:none"
             d="m 0,0 c 0,-4.393 -3.56,-7.96 -7.955,-7.96 -4.398,0 -7.953,3.567 -7.953,7.96 0,4.392 3.555,7.957 7.953,7.957 C -3.56,7.957 0,4.392 0,0" /></g><g
           transform="translate(216.4727,19.0176)"
           id="g288"><path
             id="path290"
             style="fill:#0083b4;fill-opacity:1;fill-rule:nonzero;stroke:none"
             d="m 0,0 c 0,-4.395 -3.561,-7.955 -7.954,-7.955 -4.393,0 -7.958,3.56 -7.958,7.955 0,4.392 3.565,7.952 7.958,7.952 C -3.561,7.952 0,4.392 0,0" /></g><g
           transform="translate(206.1279,12.252)"
           id="g292"><path
             id="path294"
             style="fill:#0083b4;fill-opacity:1;fill-rule:nonzero;stroke:none"
             d="m 0,0 c 0,-4.397 -3.555,-7.955 -7.954,-7.955 -4.387,0 -7.953,3.558 -7.953,7.955 0,4.398 3.566,7.954 7.953,7.954 C -3.555,7.954 0,4.398 0,0" /></g><g
           transform="translate(197.377,4.7031)"
           id="g296"><path
             id="path298"
             style="fill:#0083b4;fill-opacity:1;fill-rule:nonzero;stroke:none"
             d="m 0,0 c 0,-4.399 -3.555,-7.959 -7.953,-7.959 -4.399,0 -7.959,3.56 -7.959,7.959 0,4.393 3.56,7.952 7.959,7.952 C -3.555,7.952 0,4.393 0,0" /></g><g
           transform="translate(187.8301,-5.2529)"
           id="g300"><path
             id="path302"
             style="fill:#0083b4;fill-opacity:1;fill-rule:nonzero;stroke:none"
             d="m 0,0 c 0,-4.395 -3.561,-7.96 -7.954,-7.96 -4.399,0 -7.96,3.565 -7.96,7.96 0,4.392 3.561,7.957 7.96,7.957 C -3.561,7.957 0,4.392 0,0" /></g><g
           transform="translate(207.0635,-0.6113)"
           id="g304"><path
             id="path306"
             style="fill:#0083b4;fill-opacity:1;fill-rule:nonzero;stroke:none"
             d="m 0,0 c 0,-4.396 -3.565,-7.951 -7.955,-7.951 -4.398,0 -7.963,3.555 -7.963,7.951 0,4.397 3.565,7.955 7.963,7.955 C -3.565,7.955 0,4.397 0,0" /></g><g
           transform="translate(207.0635,-0.6113)"
           id="g308"><path
             id="path310"
             style="fill:none;stroke:#005b7f;stroke-width:0.1;stroke-linecap:butt;stroke-linejoin:miter;stroke-miterlimit:10;stroke-dasharray:none;stroke-opacity:1"
             d="m 0,0 c 0,-4.396 -3.565,-7.951 -7.955,-7.951 -4.398,0 -7.963,3.555 -7.963,7.951 0,4.397 3.565,7.955 7.963,7.955 C -3.565,7.955 0,4.397 0,0 Z" /></g><g
           transform="translate(219.2627,7.0781)"
           id="g312"><path
             id="path314"
             style="fill:#0083b4;fill-opacity:1;fill-rule:nonzero;stroke:none"
             d="m 0,0 c 0,-4.393 -3.565,-7.955 -7.96,-7.955 -4.398,0 -7.953,3.562 -7.953,7.955 0,4.396 3.555,7.957 7.953,7.957 C -3.565,7.957 0,4.396 0,0" /></g><g
           transform="translate(220.0537,-4.0586)"
           id="g316"><path
             id="path318"
             style="fill:#0083b4;fill-opacity:1;fill-rule:nonzero;stroke:none"
             d="m 0,0 c 0,-4.395 -3.565,-7.961 -7.953,-7.961 -4.399,0 -7.959,3.566 -7.959,7.961 0,4.394 3.56,7.959 7.959,7.959 C -3.565,7.959 0,4.394 0,0" /></g></g></g><g
       id="g320"><g
         clip-path="url(#clipPath326)"
         id="g322"><g
           transform="translate(244.1001,26.373)"
           id="g328"><path
             id="path330"
             style="fill:#ccbd39;fill-opacity:1;fill-rule:nonzero;stroke:none"
             d="m 0,0 c 0,0 -50.313,38.521 -61.323,27.398 -8.531,-8.64 -15.632,-33.713 -14.314,-45.392 0.992,-8.894 6.513,-26.961 10.632,-35.229 2.017,-4.049 9.517,-15.539 9.517,-15.539 0,0 5.281,-6.381 8.03,-6.646 11.586,-1.134 36.036,24.349 36.036,24.349 z" /></g><g
           transform="translate(255.4302,28.2422)"
           id="g332"><path
             id="path334"
             style="fill:#ccbd39;fill-opacity:1;fill-rule:nonzero;stroke:none"
             d="M 0,0 C 0,0 63.76,21.21 69.195,7.598 73.416,-2.959 69.103,-28.49 62.799,-39.01 57.987,-47.01 44.965,-62.274 37.523,-68.775 33.875,-71.96 21.87,-80.488 21.87,-80.488 c 0,0 -7.719,-4.41 -10.416,-3.863 -11.3,2.34 -24.556,35.564 -24.556,35.564 z" /></g><g
           transform="translate(242.0869,20.6807)"
           id="g336"><path
             id="path338"
             style="fill:#f4ed86;fill-opacity:1;fill-rule:nonzero;stroke:none"
             d="m 0,0 c 0,0 -37.005,17.819 -50.875,21.841 -2.11,0.605 -5.625,-6.086 -3.541,-6.745 C -38.559,10.142 0,0 0,0" /></g><g
           transform="translate(239.144,18.7412)"
           id="g340"><path
             id="path342"
             style="fill:#f4ed86;fill-opacity:1;fill-rule:nonzero;stroke:none"
             d="m 0,0 c 0,0 -42.891,-0.339 -57.327,-2.755 -2.176,-0.362 1.298,-11.069 3.464,-10.646 C -36.494,-9.987 0,0 0,0" /></g><g
           transform="translate(240.248,15.1973)"
           id="g344"><path
             id="path346"
             style="fill:#f4ed86;fill-opacity:1;fill-rule:nonzero;stroke:none"
             d="m 0,0 c 0,0 -36.3,-18.762 -47.028,-27.021 -1.625,-1.258 3.978,-6.902 5.659,-5.69 C -28.714,-23.439 0,0 0,0" /></g><g
           transform="translate(249.6885,18.4395)"
           id="g348"><path
             id="path350"
             style="fill:#f4ed86;fill-opacity:1;fill-rule:nonzero;stroke:none"
             d="M 0,0 C 0,0 41.379,9.263 56.071,10.164 58.284,10.303 59.564,3.086 57.323,2.906 40.45,1.512 0,0 0,0" /></g><g
           transform="translate(251.252,17.5947)"
           id="g352"><path
             id="path354"
             style="fill:#f4ed86;fill-opacity:1;fill-rule:nonzero;stroke:none"
             d="M 0,0 C 0,0 41.292,-9.517 54.431,-14.94 56.438,-15.769 49.67,-25.368 47.704,-24.484 32.035,-17.455 0,0 0,0" /></g><g
           transform="translate(250.792,15.2695)"
           id="g356"><path
             id="path358"
             style="fill:#f4ed86;fill-opacity:1;fill-rule:nonzero;stroke:none"
             d="m 0,0 c 0,0 29.073,-25.887 36.787,-36.16 1.184,-1.574 -6.039,-5.808 -7.265,-4.276 C 20.261,-28.77 0,0 0,0" /></g><g
           transform="translate(253.6523,35.8906)"
           id="g360"><path
             id="path362"
             style="fill:#ccbd39;fill-opacity:1;fill-rule:nonzero;stroke:none"
             d="m 0,0 c -9.772,1.236 -9.788,-4.019 -11.811,-8.512 -6.088,-13.594 -12.955,-42.395 -13.037,-57.308 -0.01,-2.63 -1.261,-14.497 1.783,-15.355 3.02,-0.837 3.296,3.49 4.645,5.779 9.389,15.862 19.636,53.54 20.623,66.097 C 2.453,-6.086 3.888,-0.492 0,0" /></g><g
           transform="translate(248.4424,23.6328)"
           id="g364"><path
             id="path366"
             style="fill:#ccbd39;fill-opacity:1;fill-rule:nonzero;stroke:none"
             d="m 0,0 c 0,0 2.278,4.314 1.956,17.682 -0.623,25.522 -6.84,26.74 -6.84,26.74 0,0 3.903,-12.512 4.557,-22.429 C 0.035,16.512 0,0 0,0" /></g><g
           transform="translate(251.1543,27.9961)"
           id="g368"><path
             id="path370"
             style="fill:#ccbd39;fill-opacity:1;fill-rule:nonzero;stroke:none"
             d="m 0,0 c 0,0 -1.139,4.758 2.498,17.614 6.928,24.558 13.252,24.154 13.252,24.154 0,0 -6.886,-11.122 -9.982,-20.551 C 4.062,15.996 0,0 0,0" /></g></g></g><g
       id="g372"><g
         clip-path="url(#clipPath378)"
         id="g374"><g
           transform="translate(425.2109,43.7158)"
           id="g380"><path
             id="path382"
             style="fill:#f7a2a5;fill-opacity:1;fill-rule:nonzero;stroke:none"
             d="m 0,0 c 0,0 -24.224,11.846 -32.068,15.599 -5.703,2.728 -15.42,8.353 -22.315,8.783 -4.381,0.277 -9.806,-5.032 -13.82,-4.172 -3.696,0.792 -10.379,3.075 -12.579,7.031 -0.62,1.119 -0.349,1.484 -2.833,1.315 -2.841,-0.186 3.271,-5.032 5.033,-6.371 1.934,-1.454 6.977,-5.286 9.748,-5.707 4.029,-0.616 9.814,4.188 13.506,4.175 6.568,-0.037 16.008,-5.416 21.059,-8.351 6.928,-4.02 30.49,-16.039 30.49,-16.039 z" /></g><g
           transform="translate(410.9121,31.0879)"
           id="g384"><path
             id="path386"
             style="fill:#f7a2a5;fill-opacity:1;fill-rule:nonzero;stroke:none"
             d="m 0,0 c 0,0 -36.072,0.492 -50.92,-2.969 -8.659,-2.011 -5.972,-23.285 -8.964,-23.389 -2.189,-0.083 -9.899,22.071 1.887,28.004 21.011,10.575 63.179,6.258 63.179,6.258 z" /></g><g
           transform="translate(426.1494,16.9199)"
           id="g388"><path
             id="path390"
             style="fill:#f7a2a5;fill-opacity:1;fill-rule:nonzero;stroke:none"
             d="m 0,0 c 0,0 -34.952,1.946 -45.268,-1.324 -8.504,-2.69 -17.815,-15.464 -25.769,-18.887 -4.61,-1.993 -21.37,-2.64 -21.37,-2.64 l 19.486,7.908 23.254,17.14 38.35,3.951 z" /></g><g
           transform="translate(417.9805,39.4854)"
           id="g392"><path
             id="path394"
             style="fill:#f7a2a5;fill-opacity:1;fill-rule:nonzero;stroke:none"
             d="m 0,0 c 0,0 -14.58,7.608 -20.051,9.396 -6.612,2.164 -20.733,5.912 -28.047,5.765 -5.939,-0.119 -17.296,-3.455 -22.388,-5.603 -3.149,-1.319 -6.866,-3.493 -8.953,-5.602 -2.129,-2.139 -2.396,-9.721 -1.885,-8.071 1.408,4.613 11.549,8.893 11.549,8.893 0,0 8.742,3.763 11.787,4.287 2.941,0.503 8.983,1.278 12.017,1.155 6.803,-0.277 20.32,-3.633 26.632,-5.442 4.626,-1.319 16.978,-7.413 16.978,-7.413 z" /></g><g
           transform="translate(411.8477,27.1338)"
           id="g396"><path
             id="path398"
             style="fill:#f7a2a5;fill-opacity:1;fill-rule:nonzero;stroke:none"
             d="m 0,0 c -4.868,0.985 -43.221,0.651 -51.855,-0.333 -6.051,-0.688 -16.502,-5.211 -22.632,-5.271 -3.279,-0.031 -10.368,5.169 -12.254,3.294 -1.976,-1.957 5.788,-6.328 8.954,-7.25 7.741,-2.247 21.346,2.424 29.686,2.971 11.871,0.772 52.97,2.524 52.97,2.524 0,0 -3.303,3.748 -4.869,4.065" /></g><g
           transform="translate(418.6113,19.9922)"
           id="g400"><path
             id="path402"
             style="fill:#f7a2a5;fill-opacity:1;fill-rule:nonzero;stroke:none"
             d="m 0,0 c 0,0 5.65,-5.494 3.77,-8.346 -2.957,-4.474 -20.999,-7.133 -26.09,-3.737 -2.284,1.522 0.367,9.419 -0.95,11.424 -3.451,5.272 -15.328,2.389 -20.746,1.096 -6.568,-1.568 -25.441,-16.132 -19.168,-14.052 5.979,1.97 10.95,6.781 16.348,8.345 3.82,1.105 14.014,4.626 17.285,2.852 3.594,-1.953 -0.907,-10.629 2.513,-12.74 6.703,-4.137 31.378,-2.466 35.515,3.075 3.776,5.054 3.145,8.349 3.145,8.349 z" /></g><g
           transform="translate(452.5566,30.209)"
           id="g404"><path
             id="path406"
             style="fill:#f37779;fill-opacity:1;fill-rule:nonzero;stroke:none"
             d="m 0,0 c 0,-8.434 -9.572,-15.268 -21.377,-15.268 -11.805,0 -21.367,6.834 -21.367,15.268 0,8.43 9.562,15.266 21.367,15.266 C -9.572,15.266 0,8.43 0,0" /></g><g
           transform="translate(445.8271,30.6475)"
           id="g408"><path
             id="path410"
             style="fill:#f7a2a5;fill-opacity:1;fill-rule:nonzero;stroke:none"
             d="m 0,0 c 0,-5.641 -5.572,-10.218 -12.438,-10.218 -6.875,0 -12.437,4.577 -12.437,10.218 0,5.64 5.562,10.212 12.437,10.212 C -5.572,10.212 0,5.64 0,0" /></g><g
           transform="translate(485.6006,40.4238)"
           id="g412"><path
             id="path414"
             style="fill:#f37779;fill-opacity:1;fill-rule:nonzero;stroke:none"
             d="m 0,0 c 0,0 -44.042,10.832 -38.981,4.392 5.195,-6.595 5.667,-9.56 -1.881,-28.999 -2.143,-5.515 37.432,-4.577 37.432,-4.577 z" /></g><g
           transform="translate(441.9121,31.8203)"
           id="g416"><path
             id="path418"
             style="fill:#fbd9e3;fill-opacity:1;fill-rule:nonzero;stroke:none"
             d="m 0,0 c 0,-3.535 -3.31,-6.406 -7.391,-6.406 -4.077,0 -7.386,2.871 -7.386,6.406 0,3.534 3.309,6.406 7.386,6.406 C -3.31,6.406 0,3.534 0,0" /></g><g
           transform="translate(439.082,32.9541)"
           id="g420"><path
             id="path422"
             style="fill:#f37779;fill-opacity:1;fill-rule:nonzero;stroke:none"
             d="m 0,0 c 0,-2.421 -2.116,-4.387 -4.733,-4.387 -2.62,0 -4.739,1.966 -4.739,4.387 0,2.427 2.119,4.392 4.739,4.392 C -2.116,4.392 0,2.427 0,0" /></g></g></g><g
       id="g424"><g
         clip-path="url(#clipPath430)"
         id="g426"><g
           transform="translate(606.3076,-21.1104)"
           id="g432"><path
             id="path434"
             style="fill:#a0d5b1;fill-opacity:1;fill-rule:nonzero;stroke:none"
             d="m 0,0 0.745,-0.532 c 1.306,-0.93 5.271,-3.383 7.902,-3.544 l 0.084,0.02 c 7.045,0.785 85.135,16.973 94.559,41.713 -5.087,6.321 -65.931,48.231 -97.858,58.956 -24.691,8.288 -40.165,8.659 -60.08,6.443 -3.811,-0.424 -8.009,-0.975 -13.23,-1.733 -30.086,-4.365 -54.121,-23.072 -65.674,-32.058 -4.805,-3.741 -6.812,-5.268 -8.31,-5.544 -13.213,-2.435 -19.619,-4.64 -22.692,-6.11 8.504,-0.971 25.742,-3.684 29.387,-9.982 15.811,-27.304 41.77,-39.888 60.729,-49.075 1.944,-0.942 3.81,-1.848 5.583,-2.729 6.63,-3.293 18.495,-4.103 34.32,-2.341 17.26,1.923 33.492,6.235 33.651,6.282 z M 9.164,-7.923 C 8.794,-7.965 8.543,-7.97 8.408,-7.957 c -3.425,0.206 -7.46,2.619 -9.156,3.74 -3.631,-0.929 -18.102,-4.468 -33.355,-6.167 -16.802,-1.871 -29.082,-0.959 -36.483,2.727 -1.76,0.87 -3.612,1.771 -5.552,2.711 -19.407,9.408 -45.987,22.289 -62.388,50.626 -2.705,4.671 -20.338,7.683 -30.816,8.486 l -1.387,0.109 -0.348,1.353 c -0.1,0.396 -0.176,1.217 0.471,2.228 2.179,3.407 11.611,6.667 28.043,9.691 0.771,0.237 3.748,2.554 6.625,4.79 11.817,9.193 36.406,28.322 67.504,32.838 5.257,0.763 9.498,1.316 13.356,1.75 20.471,2.277 36.374,1.896 61.745,-6.623 C 26.944,93.491 57.363,74.663 69.504,66.886 79.591,60.416 89.047,53.95 96.112,48.677 108.089,39.742 107.688,38.522 107.221,37.112 97.551,7.688 10.029,-7.827 9.164,-7.923" /></g><g
           transform="translate(711.6152,14.6699)"
           id="g436"><path
             id="path438"
             style="fill:#a0d5b1;fill-opacity:1;fill-rule:nonzero;stroke:none"
             d="m 0,0 c -86.862,2.964 -136.595,9.409 -176.562,14.583 -30.592,3.962 -54.756,7.097 -84.258,6.951 -2.633,-0.023 -10.358,-2.218 -13.105,-3.067 l -1.147,3.719 c 1.061,0.331 10.551,3.232 14.231,3.242 29.765,0.143 54.043,-3.002 84.78,-6.983 C -136.184,13.277 -86.547,6.848 0.131,3.884 Z" /></g><g
           transform="translate(495.4658,33.9473)"
           id="g440"><path
             id="path442"
             style="fill:#a0d5b1;fill-opacity:1;fill-rule:nonzero;stroke:none"
             d="m 0,0 c -8.849,7.512 -19.212,15.575 -21.245,16.065 l 0.924,3.783 C -16.491,18.917 -1.872,6.695 2.521,2.971 Z" /></g><g
           transform="translate(522.0508,31.1787)"
           id="g444"><path
             id="path446"
             style="fill:#a0d5b1;fill-opacity:1;fill-rule:nonzero;stroke:none"
             d="m 0,0 c -0.24,0.256 -24.701,25.454 -37.612,26.458 l 0.297,3.881 C -22.934,29.218 1.76,3.79 2.799,2.706 Z" /></g><g
           transform="translate(543.4912,29.2529)"
           id="g448"><path
             id="path450"
             style="fill:#a0d5b1;fill-opacity:1;fill-rule:nonzero;stroke:none"
             d="m 0,0 c -0.154,0.276 -15.964,27.461 -44.89,37.456 l 1.272,3.678 C -13.274,30.653 2.713,3.102 3.375,1.931 Z" /></g><g
           transform="translate(585.123,23.4043)"
           id="g452"><path
             id="path454"
             style="fill:#a0d5b1;fill-opacity:1;fill-rule:nonzero;stroke:none"
             d="m 0,0 c -0.334,0.331 -33.889,33.494 -73.729,49.545 l 1.452,3.611 C -31.684,36.805 2.402,3.099 2.741,2.76 Z" /></g><g
           transform="translate(627.7686,19.6426)"
           id="g456"><path
             id="path458"
             style="fill:#a0d5b1;fill-opacity:1;fill-rule:nonzero;stroke:none"
             d="m 0,0 c -0.303,0.23 -30.477,23.25 -44.361,30.068 -3.972,1.952 -8.585,5.76 -13.47,9.789 -5.463,4.509 -11.113,9.169 -16.269,11.604 -5.153,2.434 -21.59,8.189 -21.758,8.249 l 1.283,3.675 c 0.682,-0.239 16.798,-5.883 22.138,-8.406 5.593,-2.643 11.434,-7.459 17.083,-12.122 4.699,-3.88 9.142,-7.543 12.706,-9.292 C -28.42,26.575 1.104,4.051 2.358,3.092 Z" /></g><g
           transform="translate(650.4492,18.1523)"
           id="g460"><path
             id="path462"
             style="fill:#a0d5b1;fill-opacity:1;fill-rule:nonzero;stroke:none"
             d="m 0,0 c -0.428,0.401 -43.198,40.461 -63.672,52.326 -6.299,3.646 -26.858,12.18 -27.061,12.266 l 1.49,3.594 C -88.391,67.831 -68.246,59.467 -61.72,55.693 -40.863,43.604 0.891,4.498 2.666,2.841 Z" /></g><g
           transform="translate(473.1709,19.2158)"
           id="g464"><path
             id="path466"
             style="fill:#a0d5b1;fill-opacity:1;fill-rule:nonzero;stroke:none"
             d="m 0,0 -1.788,3.649 c 0.089,0.043 8.859,4.256 11.497,5.948 4.952,3.174 11.108,8.523 11.171,8.574 l 2.705,-3.039 C 23.329,14.9 17.147,9.531 11.935,6.187 9.089,4.368 0.37,0.177 0,0" /></g><g
           transform="translate(480.127,9.8125)"
           id="g468"><path
             id="path470"
             style="fill:#a0d5b1;fill-opacity:1;fill-rule:nonzero;stroke:none"
             d="m 0,0 -1.293,3.674 c 33.102,11.599 36.506,19.835 36.537,19.918 l 3.733,-1.081 C 38.719,21.516 35.4,12.411 0,0" /></g><g
           transform="translate(487.0605,1.4082)"
           id="g472"><path
             id="path474"
             style="fill:#a0d5b1;fill-opacity:1;fill-rule:nonzero;stroke:none"
             d="M 0,0 -0.92,3.791 C 56.308,17.666 63.098,27.92 63.147,28.02 l 3.446,-1.809 C 65.973,25.032 58.831,14.273 0,0" /></g><g
           transform="translate(512.9414,-8.5449)"
           id="g476"><path
             id="path478"
             style="fill:#a0d5b1;fill-opacity:1;fill-rule:nonzero;stroke:none"
             d="m 0,0 c -8.371,-0.93 -14.605,0.414 -14.95,0.492 l 0.843,3.801 C -14.002,4.267 -2.916,1.905 9.102,5.961 42.776,17.34 60.906,35.33 61.081,35.504 l 2.76,-2.739 C 63.085,32.004 44.944,13.965 10.348,2.275 6.725,1.048 3.206,0.357 0,0" /></g><g
           transform="translate(539.0469,-19.2285)"
           id="g480"><path
             id="path482"
             style="fill:#a0d5b1;fill-opacity:1;fill-rule:nonzero;stroke:none"
             d="m 0,0 c -10.895,-1.209 -21.018,-0.469 -21.57,-0.43 l 0.292,3.883 c 0.169,-0.015 17.28,-1.258 30.426,2.099 28.41,7.24 77.384,36.28 77.879,36.573 L 89.011,38.78 C 86.985,37.579 39.062,9.156 10.113,1.777 6.839,0.943 3.383,0.378 0,0" /></g><g
           transform="translate(547.7734,-31.9688)"
           id="g484"><path
             id="path486"
             style="fill:#a0d5b1;fill-opacity:1;fill-rule:nonzero;stroke:none"
             d="m 0,0 -0.832,3.801 c 0.29,0.062 29.054,6.351 38.087,9.737 61.556,23.056 74.342,37.678 74.465,37.818 l 2.992,-2.475 C 114.211,48.266 101.602,33.482 38.616,9.895 29.327,6.412 1.193,0.261 0,0" /></g><g
           transform="translate(674.9697,16.8027)"
           id="g488"><path
             id="path490"
             style="fill:#a0d5b1;fill-opacity:1;fill-rule:nonzero;stroke:none"
             d="m 0,0 c -0.401,0.377 -40.347,37.823 -75.132,61.916 l 2.211,3.201 C -37.892,40.854 2.26,3.216 2.658,2.835 Z" /></g><g
           transform="translate(608.2988,-26.5137)"
           id="g492"><path
             id="path494"
             style="fill:#a0d5b1;fill-opacity:1;fill-rule:nonzero;stroke:none"
             d="M 0,0 -1.173,3.709 C 59.284,22.908 82.898,44.51 83.133,44.723 l 2.65,-2.84 C 84.821,40.975 61.432,19.51 0,0" /></g><g
           transform="translate(694.3379,15.3945)"
           id="g496"><path
             id="path498"
             style="fill:#a0d5b1;fill-opacity:1;fill-rule:nonzero;stroke:none"
             d="m 0,0 c -0.271,0.266 -27.651,26.791 -56.605,47.66 l 2.275,3.159 C -25.142,29.775 2.435,3.061 2.708,2.789 Z" /></g></g></g></g></svg>